<?xml version="1.0" encoding="UTF-8" standalone="no"?>
<!-- Created with Inkscape (http://www.inkscape.org/) -->

<svg
   xmlns:svg="http://www.w3.org/2000/svg"
   xmlns="http://www.w3.org/2000/svg"
   version="1.1"
   width="180mm"
   height="60mm"
   viewBox="0 0 180 60"
   id="svg2961"
   xml:space="preserve"
   style="fill-rule:evenodd">
 <defs
   id="defs2963"><style
     type="text/css"
     id="style2965" /></defs>
 <g
   id="Livello_x0020_1">
  
  <path
   d="m 2.104,41.6783 0,-34.1727 0,0 2.4463,0 0,0 6.5791,0 c 3.6402,0 6.4371,0.7347 8.4075,2.2125 1.962,1.4778 2.9472,3.5734 2.9472,6.2952 0,2.7134 -0.9852,4.7923 -2.9556,6.2618 -0.6762,0.5093 -1.4527,0.9351 -2.3544,1.2774 l 0,0 c 1.962,0.384 3.6068,1.0603 4.9426,2.0038 2.2793,1.6113 3.4232,3.9073 3.4232,6.8712 0,2.9556 -1.0854,5.2349 -3.2562,6.8379 -2.1624,1.6114 -5.2599,2.4129 -9.2674,2.4129 l -8.466,0 0,0 -2.4463,0 z m 4.8926,-29.6726 0,10.0022 0,0 4.1328,0 c 2.0956,0 3.6569,-0.4091 4.6921,-1.2357 1.0353,-0.8265 1.553,-2.0705 1.553,-3.757 0,-1.6782 -0.5177,-2.9306 -1.553,-3.7655 -1.0352,-0.8265 -2.5965,-1.244 -4.6921,-1.244 l -4.1328,0 z m 0,14.5023 0,10.6702 0,0 6.0447,0 c 2.4797,0 4.3332,-0.4425 5.5521,-1.3192 1.2273,-0.885 1.8368,-2.2125 1.8368,-3.9909 0,-1.795 -0.6679,-3.1392 -2.0037,-4.0242 -1.3442,-0.8934 -3.3647,-1.3359 -6.0698,-1.3359 l -5.3601,0 z m 23.3606,15.1703 0,-34.1727 0,0 2.4463,0 2.4463,0 0,0 0,34.1727 0,0 -2.4463,0 -2.4463,0 z m 53.8097,0 0,-34.1727 0,0 2.4463,0 0,0 6.3119,0 c 3.5066,0 6.2033,0.8015 8.1069,2.4129 1.8953,1.603 2.8471,3.8906 2.8471,6.8545 0,2.9556 -0.9518,5.2265 -2.8638,6.8296 -0.8933,0.7514 -1.9703,1.3275 -3.2227,1.7366 l 0,0 0.7765,0.4675 c 1.7282,1.0604 3.4398,2.8721 5.1346,5.452 l 6.8546,10.4196 0,0 -2.9472,0 -2.9389,0 0,0 -2.1955,-3.4665 0.0796,0.0058 0.5213,0.0355 0.5221,0.0318 0.5233,0.028 0.5243,0.0228 0.5254,0.0174 0.5265,0.0109 c 0.2101,0.0016 0.4202,0.0031 0.6304,0.0046 0.1787,-0.0373 0.305,-0.1819 0.3806,-0.468 0.007,-0.253 -0.0116,-0.2989 -0.2263,-0.4507 -0.0398,-0.0242 -0.0796,-0.0484 -0.1193,-0.0727 -0.0389,-0.0181 -0.1711,-0.0592 -0.2099,-0.0774 l -0.4787,-0.118 -0.4211,-0.0892 -0.4218,-0.0895 -0.4223,-0.0893 -0.423,-0.0892 -0.4236,-0.0885 -0.4241,-0.0877 -0.4245,-0.0865 -0.4253,-0.0853 -0.4258,-0.0837 -0.4264,-0.0819 -0.1874,-0.035 -2.189,-3.4561 C 97.6423,30.574 96.3065,28.9877 95.0458,28.0693 93.7934,27.1426 92.3407,26.6834 90.6959,26.6834 l -1.6364,0 0,0 0,14.9949 0,0 -2.4463,0 -2.4463,0 z m 4.8926,-19.4951 0,0 3.8656,0 c 1.9537,0 3.4148,-0.4174 4.3916,-1.2607 0.9685,-0.8432 1.4527,-2.1039 1.4527,-3.8072 0,-1.7115 -0.4842,-2.9889 -1.4527,-3.8405 -0.9768,-0.8433 -2.4379,-1.2691 -4.3916,-1.2691 l -3.8656,0 0,0 0,10.1775 z m 42.0959,20.0127 c -5.1346,0 -9.4761,-1.7032 -13.0245,-5.1012 -3.5483,-3.3981 -5.3184,-7.5643 -5.3184,-12.4902 0,-4.926 1.7701,-9.0922 5.3184,-12.5069 3.5484,-3.4065 7.8899,-5.1097 13.0245,-5.1097 5.1514,0 9.5013,1.7032 13.0496,5.1097 3.5484,3.4147 5.3184,7.5809 5.3184,12.5069 0,4.9259 -1.77,9.0921 -5.3184,12.4902 -3.5483,3.398 -7.8982,5.1012 -13.0496,5.1012 z m 0,-4.5001 c 3.9325,0 7.1218,-1.219 9.5764,-3.6485 2.4547,-2.4296 3.682,-5.5772 3.682,-9.4428 0,-3.8824 -1.2273,-7.0383 -3.682,-9.4679 -2.4546,-2.4296 -5.6439,-3.6485 -9.5764,-3.6485 -3.899,0 -7.08,1.2189 -9.5429,3.6485 -2.463,2.4296 -3.6903,5.5855 -3.6903,9.4679 0,3.8656 1.2273,7.0132 3.6903,9.4428 2.4629,2.4295 5.6439,3.6485 9.5429,3.6485 z m 24.4043,3.9825 0,-34.1727 0,0 2.4463,0 0,0 6.5791,0 c 3.6402,0 6.4371,0.7347 8.4075,2.2125 1.962,1.4778 2.9472,3.5734 2.9472,6.2952 0,2.7134 -0.9852,4.7923 -2.9556,6.2618 -0.6762,0.5093 -1.4527,0.9351 -2.3544,1.2774 l 0,0 c 1.962,0.384 3.6068,1.0603 4.9426,2.0038 2.2793,1.6113 3.4232,3.9073 3.4232,6.8712 0,2.9556 -1.0854,5.2349 -3.2562,6.8379 -2.1624,1.6114 -5.2599,2.4129 -9.2674,2.4129 l -8.466,0 0,0 -2.4463,0 z m 4.8926,-29.6726 0,10.0022 0,0 4.1328,0 c 2.0956,0 3.6569,-0.4091 4.6921,-1.2357 1.0353,-0.8265 1.553,-2.0705 1.553,-3.757 0,-1.6782 -0.5177,-2.9306 -1.553,-3.7655 -1.0352,-0.8265 -2.5965,-1.244 -4.6921,-1.244 l -4.1328,0 z m 0,14.5023 0,10.6702 0,0 6.0447,0 c 2.4797,0 4.3332,-0.4425 5.5521,-1.3192 1.2273,-0.885 1.8368,-2.2125 1.8368,-3.9909 0,-1.795 -0.6679,-3.1392 -2.0037,-4.0242 -1.3442,-0.8934 -3.3647,-1.3359 -6.0698,-1.3359 l -5.3601,0 z"
   id="path2969"
   style="fill:#1f1a17;fill-rule:nonzero" />
  <polygon
   points="2.1181,55.9781 2.1181,45.8706 2.1181,45.8706 7.8053,45.8706 7.8053,45.8706 7.8053,46.5078 7.8053,47.1523 7.8053,47.1523 3.5652,47.1523 3.5652,47.1523 3.5652,50.2391 3.5652,50.2391 7.6892,50.2391 7.6892,50.8762 7.6892,51.5207 7.6892,51.5207 3.5652,51.5207 3.5652,51.5207 3.5652,54.6965 3.5652,54.6965 7.9855,54.6965 7.9855,54.6965 7.9855,55.3336 7.9855,55.9781 7.9855,55.9781 2.1181,55.9781 "
   id="polygon2971"
   style="fill:#1f1a17;fill-rule:nonzero" />
  <path
   d="m 9.5985,55.9781 0,-10.1075 0,0 0.7235,0 0,0 2.0843,0 c 1.1754,0 2.0644,0.242 2.6645,0.7236 0.6001,0.4815 0.9013,1.1952 0.9013,2.141 0,0.9162 -0.3086,1.6224 -0.926,2.1163 -0.6174,0.4939 -1.4965,0.7409 -2.6398,0.7409 l -1.3607,0 0,0 0,4.3857 0,0 -0.7236,0 -0.7235,0 z m 1.4471,-5.7168 0,0 1.5335,0 c 0.6322,0 1.1039,-0.1259 1.415,-0.3803 0.3112,-0.2519 0.4667,-0.6346 0.4667,-1.1458 0,-0.5161 -0.1555,-0.9013 -0.4667,-1.1532 -0.3111,-0.2544 -0.7828,-0.3803 -1.415,-0.3803 l -1.5335,0 0,0 0,3.0596 z"
   id="path2973"
   style="fill:#1f1a17;fill-rule:nonzero" />
  <polygon
   points="17.3974,45.8706 17.3974,45.8706 22.7882,45.8706 22.7882,45.8706 22.7882,46.5078 22.7882,47.1523 22.7882,47.1523 18.8445,47.1523 18.8445,47.1523 18.8445,49.9872 18.8445,49.9872 22.7882,49.9872 22.7882,50.6243 22.7882,51.2689 22.7882,51.2689 18.8445,51.2689 18.8445,51.2689 18.8445,55.9781 18.121,55.9781 17.3974,55.9781 "
   id="polygon2975"
   style="fill:#1f1a17;fill-rule:nonzero" />
  <polygon
   points="24.4704,55.9781 24.4704,45.8706 24.4704,45.8706 25.194,45.8706 25.9175,45.8706 25.9175,45.8706 25.9175,54.6965 25.9175,54.6965 30.4835,54.6965 30.4835,54.6965 30.4835,55.3336 30.4835,55.9781 30.4835,55.9781 24.4704,55.9781 "
   id="polygon2977"
   style="fill:#1f1a17;fill-rule:nonzero" />
  <path
   d="m 36.0156,55.9781 0,-10.1075 0,0 0.7236,0 0,0 1.9459,0 c 1.0767,0 1.9039,0.2174 2.4867,0.6544 0.5804,0.4371 0.8717,1.057 0.8717,1.862 0,0.8026 -0.2913,1.4175 -0.8741,1.8521 -0.2001,0.1506 -0.4297,0.2766 -0.6964,0.3778 l 0,0 c 0.5803,0.1136 1.0668,0.3136 1.4619,0.5927 0.6742,0.4766 1.0125,1.1557 1.0125,2.0323 0,0.8742 -0.3211,1.5484 -0.9631,2.0225 -0.6396,0.4766 -1.5558,0.7137 -2.7411,0.7137 l -2.504,0 0,0 -0.7236,0 z m 1.4471,-8.7764 0,2.9584 0,0 1.2224,0 c 0.6198,0 1.0816,-0.121 1.3878,-0.3655 0.3062,-0.2445 0.4593,-0.6124 0.4593,-1.1113 0,-0.4963 -0.1531,-0.8667 -0.4593,-1.1137 -0.3062,-0.2445 -0.768,-0.3679 -1.3878,-0.3679 l -1.2224,0 z m 0,4.2894 0,3.156 0,0 1.7879,0 c 0.7334,0 1.2816,-0.1309 1.6422,-0.3902 0.363,-0.2618 0.5433,-0.6544 0.5433,-1.1804 0,-0.5309 -0.1976,-0.9285 -0.5927,-1.1903 -0.3976,-0.2642 -0.9952,-0.3951 -1.7953,-0.3951 l -1.5854,0 z"
   id="path2979"
   style="fill:#1f1a17;fill-rule:nonzero" />
  <path
   d="m 44.3776,55.9781 0,-6.6552 0,0 0.6594,0 0.6569,0 0,0 0,6.6552 0,0 -0.6569,0 -0.6594,0 z m 0.6594,-9.5148 c 0.2198,0 0.4099,0.0766 0.563,0.2321 0.1556,0.1531 0.2321,0.3433 0.2321,0.5631 0,0.2222 -0.0765,0.4124 -0.2321,0.5655 -0.1531,0.1556 -0.3432,0.2321 -0.563,0.2321 -0.2223,0 -0.4124,-0.0765 -0.5655,-0.2321 -0.1556,-0.1531 -0.2321,-0.3433 -0.2321,-0.5655 0,-0.2198 0.0765,-0.41 0.2321,-0.5631 0.1531,-0.1555 0.3432,-0.2321 0.5655,-0.2321 z"
   id="path2981"
   style="fill:#1f1a17;fill-rule:nonzero" />
  <path
   d="m 50.8826,56.1312 c -1.0421,0 -1.8965,-0.3235 -2.5583,-0.973 -0.6643,-0.6494 -0.9952,-1.4816 -0.9952,-2.5015 0,-1.0224 0.3309,-1.8595 0.9952,-2.509 0.6618,-0.6519 1.5162,-0.9779 2.5583,-0.9779 1.0396,0 1.8941,0.326 2.5608,0.9779 0.6643,0.6495 0.9977,1.4866 0.9977,2.509 0,1.0199 -0.3334,1.8521 -0.9977,2.5015 -0.6667,0.6495 -1.5212,0.973 -2.5608,0.973 z m 0,-1.1508 c 0.6495,0 1.1804,-0.2148 1.5903,-0.647 0.41,-0.4321 0.6149,-0.9902 0.6149,-1.6767 0,-0.689 -0.2049,-1.2496 -0.6149,-1.6842 -0.4099,-0.4346 -0.9408,-0.6519 -1.5903,-0.6519 -0.6519,0 -1.1804,0.2173 -1.5878,0.6519 -0.4075,0.4346 -0.6125,0.9952 -0.6125,1.6842 0,0.6865 0.205,1.2446 0.6125,1.6767 0.4074,0.4322 0.9359,0.647 1.5878,0.647 z"
   id="path2983"
   style="fill:#1f1a17;fill-rule:nonzero" />
  <path
   d="m 56.1405,55.9781 0,-6.6552 0,0 0.6593,0 0.6569,0 0,0 0,1.541 0,0 0,0 c 0.1358,-0.2741 0.2914,-0.526 0.4717,-0.7532 0.4766,-0.6273 0.9828,-0.9409 1.5187,-0.9409 0.5828,0 1.1014,0.2667 1.5557,0.8026 l -0.7161,1.2174 -0.0148,-0.0222 c -0.4149,-0.4963 -0.7903,-0.7458 -1.1286,-0.7458 -0.4963,0 -0.8914,0.168 -1.1804,0.5063 -0.2889,0.3383 -0.4568,0.8297 -0.5062,1.4767 l 0,0 0,3.5733 0,0 -0.6569,0 -0.6593,0 z"
   id="path2985"
   style="fill:#1f1a17;fill-rule:nonzero" />
  <path
   d="m 65.2285,56.1312 c -1.0421,0 -1.8965,-0.3235 -2.5583,-0.973 -0.6643,-0.6494 -0.9952,-1.4816 -0.9952,-2.5015 0,-1.0224 0.3309,-1.8595 0.9952,-2.509 0.6618,-0.6519 1.5162,-0.9779 2.5583,-0.9779 1.0396,0 1.8941,0.326 2.5608,0.9779 0.6643,0.6495 0.9977,1.4866 0.9977,2.509 0,1.0199 -0.3334,1.8521 -0.9977,2.5015 -0.6667,0.6495 -1.5212,0.973 -2.5608,0.973 z m 0,-1.1508 c 0.6495,0 1.1804,-0.2148 1.5903,-0.647 0.41,-0.4321 0.6149,-0.9902 0.6149,-1.6767 0,-0.689 -0.2049,-1.2496 -0.6149,-1.6842 -0.4099,-0.4346 -0.9408,-0.6519 -1.5903,-0.6519 -0.6519,0 -1.1804,0.2173 -1.5878,0.6519 -0.4075,0.4346 -0.6125,0.9952 -0.6125,1.6842 0,0.6865 0.205,1.2446 0.6125,1.6767 0.4074,0.4322 0.9359,0.647 1.5878,0.647 z"
   id="path2987"
   style="fill:#1f1a17;fill-rule:nonzero" />
  <path
   d="m 70.3432,45.8706 0,0 0.6593,0 0.6569,0 0,0 0,3.9289 0,0 c 0.4544,-0.4247 1.047,-0.6346 1.7804,-0.6297 0.8767,0 1.5854,0.3186 2.1213,0.9582 0.5383,0.6396 0.8075,1.4841 0.8075,2.5287 0,1.0668 -0.3136,1.9138 -0.9408,2.5386 -0.6273,0.6248 -1.4718,0.9359 -2.5386,0.9359 -0.4915,0 -0.9705,-0.0519 -1.4397,-0.1531 -0.4668,-0.1012 -0.8372,-0.2346 -1.1063,-0.405 l 0,-9.7025 z m 2.7904,9.053 c 0.5557,0 1.0076,-0.2099 1.3582,-0.6297 0.3482,-0.4198 0.5236,-0.9655 0.5236,-1.6372 0,-0.6742 -0.1754,-1.2224 -0.5236,-1.6447 -0.3506,-0.4222 -0.8025,-0.6346 -1.3582,-0.6346 -0.5531,0 -1.005,0.1975 -1.3508,0.5927 l -0.1234,0.1382 0,0 0,3.6203 0,0 0.1309,0.0444 c 0.3457,0.1013 0.7951,0.1506 1.3433,0.1506 z"
   id="path2989"
   style="fill:#1f1a17;fill-rule:nonzero" />
  <path
   d="m 81.1153,56.1312 c -1.0421,0 -1.8965,-0.3235 -2.5583,-0.973 -0.6643,-0.6494 -0.9952,-1.4816 -0.9952,-2.5015 0,-1.0224 0.3309,-1.8595 0.9952,-2.509 0.6618,-0.6519 1.5162,-0.9779 2.5583,-0.9779 1.0396,0 1.8941,0.326 2.5608,0.9779 0.6643,0.6495 0.9977,1.4866 0.9977,2.509 0,1.0199 -0.3334,1.8521 -0.9977,2.5015 -0.6667,0.6495 -1.5212,0.973 -2.5608,0.973 z m 0,-1.1508 c 0.6495,0 1.1804,-0.2148 1.5903,-0.647 0.41,-0.4321 0.6149,-0.9902 0.6149,-1.6767 0,-0.689 -0.2049,-1.2496 -0.6149,-1.6842 -0.4099,-0.4346 -0.9408,-0.6519 -1.5903,-0.6519 -0.6519,0 -1.1804,0.2173 -1.5878,0.6519 -0.4075,0.4346 -0.6125,0.9952 -0.6125,1.6842 0,0.6865 0.205,1.2446 0.6125,1.6767 0.4074,0.4322 0.9359,0.647 1.5878,0.647 z"
   id="path2991"
   style="fill:#1f1a17;fill-rule:nonzero" />
  <path
   d="m 90.265,55.7262 c -0.3654,0.2692 -0.8692,0.405 -1.5113,0.405 -0.7136,0 -1.2717,-0.1951 -1.6718,-0.5853 -0.4,-0.3926 -0.6001,-0.9359 -0.6001,-1.6372 l 0,-3.3708 0,0 -1.1285,0 0,-0.1803 2.4373,-2.3657 0.0075,0 0,1.331 0,0 2.0249,0 0,1.215 -2.0249,0 0,0 0,3.1905 c 0,0.3803 0.0913,0.6693 0.2741,0.8619 0.1852,0.1926 0.4593,0.2889 0.8248,0.2889 0.5951,-0.0049 1.0495,-0.1408 1.368,-0.405 l 0,1.252 z"
   id="path2993"
   style="fill:#1f1a17;fill-rule:nonzero" />
  <path
   d="m 91.4212,55.9781 0,-6.6552 0,0 0.6594,0 0.6569,0 0,0 0,6.6552 0,0 -0.6569,0 -0.6594,0 z m 0.6594,-9.5148 c 0.2198,0 0.4099,0.0766 0.563,0.2321 0.1556,0.1531 0.2321,0.3433 0.2321,0.5631 0,0.2222 -0.0765,0.4124 -0.2321,0.5655 -0.1531,0.1556 -0.3432,0.2321 -0.563,0.2321 -0.2223,0 -0.4124,-0.0765 -0.5655,-0.2321 -0.1556,-0.1531 -0.2321,-0.3433 -0.2321,-0.5655 0,-0.2198 0.0765,-0.41 0.2321,-0.5631 0.1531,-0.1555 0.3432,-0.2321 0.5655,-0.2321 z"
   id="path2995"
   style="fill:#1f1a17;fill-rule:nonzero" />
  <path
   d="m 99.8055,55.6472 c -0.3532,0.1778 -0.6693,0.3037 -0.9483,0.3754 -0.2791,0.0716 -0.5902,0.1086 -0.9335,0.1086 -1.0223,0 -1.857,-0.3235 -2.5065,-0.973 -0.6494,-0.6494 -0.9729,-1.4816 -0.9729,-2.5015 0,-1.0224 0.2914,-1.8595 0.8766,-2.509 0.5828,-0.6519 1.336,-0.9779 2.2571,-0.9779 0.3433,0 0.6594,0.0371 0.9483,0.1087 0.2889,0.0716 0.6272,0.1975 1.0125,0.3753 l 0,1.4101 C 99.235,50.8169 98.9436,50.6416 98.667,50.533 98.3905,50.4243 98.0941,50.37 97.7805,50.37 c -0.5828,0 -1.0594,0.2124 -1.4273,0.6371 -0.3704,0.4247 -0.5532,0.9754 -0.5532,1.6496 0,0.6717 0.205,1.2174 0.6149,1.6397 0.4099,0.4223 0.9384,0.6347 1.5903,0.6347 0.3285,0 0.6347,-0.0544 0.9187,-0.163 0.284,-0.1087 0.5778,-0.284 0.8816,-0.531 l 0,1.4101 z"
   id="path2997"
   style="fill:#1f1a17;fill-rule:nonzero" />
  <path
   d="m 105.281,51.0071 c -0.3482,-0.242 -0.6668,-0.4149 -0.9582,-0.5235 -0.2914,-0.1087 -0.5976,-0.163 -0.9161,-0.163 -0.2939,0 -0.5334,0.0568 -0.7186,0.1729 -0.1853,0.116 -0.2791,0.2691 -0.2791,0.4568 0,0.1531 0.0889,0.3087 0.2692,0.4618 0.1778,0.1556 0.4988,0.3556 0.9631,0.6025 0.7038,0.3754 1.2075,0.731 1.5063,1.0619 0.2964,0.3334 0.4445,0.7112 0.4445,1.131 0,0.5828 -0.2123,1.0495 -0.6396,1.4002 -0.4272,0.3482 -0.9951,0.5235 -1.7039,0.5235 -0.3383,0 -0.6717,-0.0494 -1.0026,-0.1482 -0.3284,-0.0987 -0.7161,-0.2667 -1.1606,-0.5037 l 0,-1.3953 c 0.4346,0.3137 0.8223,0.5408 1.1656,0.6841 0.3432,0.1407 0.6741,0.2123 0.9976,0.2123 0.3038,0 0.5507,-0.0691 0.7384,-0.2074 0.1877,-0.1358 0.2815,-0.3136 0.2815,-0.5309 0,-0.2124 -0.0691,-0.3778 -0.2074,-0.4989 -0.1408,-0.116 -0.5581,-0.358 -1.2545,-0.7235 -0.6248,-0.3284 -1.0693,-0.647 -1.3335,-0.9557 -0.2593,-0.3037 -0.3877,-0.6519 -0.3877,-1.0421 0,-0.5581 0.2,-1.0075 0.5976,-1.3458 0.3976,-0.3384 0.926,-0.5063 1.5854,-0.5063 0.3432,0 0.6667,0.0445 0.9729,0.1334 0.3063,0.0889 0.652,0.2395 1.0397,0.4519 l 0,1.252 z"
   id="path2999"
   style="fill:#1f1a17;fill-rule:nonzero" />
  <polygon
   points="111.546,55.9781 111.546,45.8706 111.546,45.8706 112.27,45.8706 112.993,45.8706 112.993,45.8706 112.993,54.6965 112.993,54.6965 117.559,54.6965 117.559,54.6965 117.559,55.3336 117.559,55.9781 117.559,55.9781 111.546,55.9781 "
   id="polygon3001"
   style="fill:#1f1a17;fill-rule:nonzero" />
  <path
   d="m 119.814,56.1312 c -0.4716,0 -0.8519,-0.1506 -1.1409,-0.4519 -0.2864,-0.3013 -0.4296,-0.6989 -0.4296,-1.1903 0,-0.4346 0.1457,-0.81 0.4346,-1.1285 0.2889,-0.3186 0.7235,-0.5828 1.3014,-0.7902 l 1.7237,-0.6223 0,0 0,-0.4124 c 0,-0.3853 -0.0963,-0.6668 -0.289,-0.8471 -0.195,-0.1778 -0.4988,-0.2667 -0.9137,-0.2667 -0.4395,0 -0.8322,0.084 -1.1779,0.2544 -0.3482,0.1679 -0.6618,0.4247 -0.9408,0.7729 l 0,-1.3458 c 0.3136,-0.3235 0.642,-0.5606 0.9828,-0.7088 0.3432,-0.1506 0.726,-0.2247 1.1508,-0.2247 0.8198,0 1.4421,0.2001 1.8669,0.6001 0.4247,0.4001 0.6371,0.9903 0.6371,1.7657 l 0,3.351 c 0,0.0914 0.0222,0.1605 0.0691,0.205 0.0445,0.0469 0.1112,0.0691 0.1976,0.0691 0.0691,0 0.163,-0.037 0.2864,-0.1161 0.1235,-0.0765 0.2495,-0.1753 0.3803,-0.2963 l 0,0.8322 c -0.1506,0.1507 -0.3556,0.2741 -0.6149,0.3754 -0.2593,0.1012 -0.5062,0.1531 -0.7383,0.1531 -0.2494,0 -0.4618,-0.0766 -0.6371,-0.2321 -0.1235,-0.1161 -0.2075,-0.2519 -0.2519,-0.4124 l 0,0 c -0.1605,0.1308 -0.3334,0.2444 -0.5211,0.3407 -0.4247,0.2174 -0.884,0.326 -1.3755,0.326 z m 1.8892,-1.4051 0,-2.0101 0,0 -0.8545,0.3037 c -0.4198,0.1506 -0.7334,0.3358 -0.9408,0.5581 -0.2075,0.2198 -0.3112,0.4815 -0.3112,0.7803 0,0.242 0.0914,0.4371 0.2741,0.5853 0.1852,0.1506 0.4223,0.2247 0.7186,0.2247 0.2396,0 0.4766,-0.0518 0.7088,-0.158 0.163,-0.079 0.2988,-0.1729 0.405,-0.284 z"
   id="path3003"
   style="fill:#1f1a17;fill-rule:nonzero" />
  <path
   d="m 125.213,45.8706 0,0 0.6593,0 0.6569,0 0,0 0,3.9289 0,0 c 0.4544,-0.4247 1.047,-0.6346 1.7804,-0.6297 0.8767,0 1.5854,0.3186 2.1213,0.9582 0.5383,0.6396 0.8075,1.4841 0.8075,2.5287 0,1.0668 -0.3136,1.9138 -0.9408,2.5386 -0.6273,0.6248 -1.4718,0.9359 -2.5386,0.9359 -0.4915,0 -0.9705,-0.0519 -1.4397,-0.1531 -0.4668,-0.1012 -0.8372,-0.2346 -1.1063,-0.405 l 0,-9.7025 z m 2.7904,9.053 c 0.5557,0 1.0076,-0.2099 1.3582,-0.6297 0.3482,-0.4198 0.5236,-0.9655 0.5236,-1.6372 0,-0.6742 -0.1754,-1.2224 -0.5236,-1.6447 -0.3506,-0.4222 -0.8025,-0.6346 -1.3582,-0.6346 -0.5531,0 -1.005,0.1975 -1.3508,0.5927 l -0.1234,0.1382 0,0 0,3.6203 0,0 0.1309,0.0444 c 0.3457,0.1013 0.7951,0.1506 1.3433,0.1506 z"
   id="path3005"
   style="fill:#1f1a17;fill-rule:nonzero" />
  <path
   d="m 135.985,56.1312 c -1.0421,0 -1.8965,-0.3235 -2.5583,-0.973 -0.6643,-0.6494 -0.9952,-1.4816 -0.9952,-2.5015 0,-1.0224 0.3309,-1.8595 0.9952,-2.509 0.6618,-0.6519 1.5162,-0.9779 2.5583,-0.9779 1.0396,0 1.8941,0.326 2.5608,0.9779 0.6643,0.6495 0.9977,1.4866 0.9977,2.509 0,1.0199 -0.3334,1.8521 -0.9977,2.5015 -0.6667,0.6495 -1.5212,0.973 -2.5608,0.973 z m 0,-1.1508 c 0.6495,0 1.1804,-0.2148 1.5903,-0.647 0.41,-0.4321 0.6149,-0.9902 0.6149,-1.6767 0,-0.689 -0.2049,-1.2496 -0.6149,-1.6842 -0.4099,-0.4346 -0.9408,-0.6519 -1.5903,-0.6519 -0.6519,0 -1.1804,0.2173 -1.5878,0.6519 -0.4075,0.4346 -0.6125,0.9952 -0.6125,1.6842 0,0.6865 0.205,1.2446 0.6125,1.6767 0.4074,0.4322 0.9359,0.647 1.5878,0.647 z"
   id="path3007"
   style="fill:#1f1a17;fill-rule:nonzero" />
  <path
   d="m 141.243,55.9781 0,-6.6552 0,0 0.6593,0 0.6569,0 0,0 0,1.541 0,0 0,0 c 0.1358,-0.2741 0.2914,-0.526 0.4717,-0.7532 0.4766,-0.6273 0.9828,-0.9409 1.5187,-0.9409 0.5828,0 1.1014,0.2667 1.5557,0.8026 l -0.7161,1.2174 -0.0148,-0.0222 c -0.4149,-0.4963 -0.7903,-0.7458 -1.1286,-0.7458 -0.4963,0 -0.8914,0.168 -1.1804,0.5063 -0.2889,0.3383 -0.4568,0.8297 -0.5062,1.4767 l 0,0 0,3.5733 0,0 -0.6569,0 -0.6593,0 z"
   id="path3009"
   style="fill:#1f1a17;fill-rule:nonzero" />
  <path
   d="m 148.195,56.1312 c -0.4716,0 -0.8519,-0.1506 -1.1409,-0.4519 -0.2864,-0.3013 -0.4296,-0.6989 -0.4296,-1.1903 0,-0.4346 0.1457,-0.81 0.4346,-1.1285 0.2889,-0.3186 0.7235,-0.5828 1.3014,-0.7902 l 1.7237,-0.6223 0,0 0,-0.4124 c 0,-0.3853 -0.0963,-0.6668 -0.289,-0.8471 -0.195,-0.1778 -0.4988,-0.2667 -0.9137,-0.2667 -0.4395,0 -0.8322,0.084 -1.1779,0.2544 -0.3482,0.1679 -0.6618,0.4247 -0.9408,0.7729 l 0,-1.3458 c 0.3136,-0.3235 0.642,-0.5606 0.9828,-0.7088 0.3432,-0.1506 0.726,-0.2247 1.1508,-0.2247 0.8198,0 1.4421,0.2001 1.8669,0.6001 0.4247,0.4001 0.6371,0.9903 0.6371,1.7657 l 0,3.351 c 0,0.0914 0.0222,0.1605 0.0691,0.205 0.0445,0.0469 0.1112,0.0691 0.1976,0.0691 0.0691,0 0.163,-0.037 0.2864,-0.1161 0.1235,-0.0765 0.2495,-0.1753 0.3803,-0.2963 l 0,0.8322 c -0.1506,0.1507 -0.3556,0.2741 -0.6149,0.3754 -0.2593,0.1012 -0.5062,0.1531 -0.7383,0.1531 -0.2494,0 -0.4618,-0.0766 -0.6371,-0.2321 -0.1235,-0.1161 -0.2075,-0.2519 -0.2519,-0.4124 l 0,0 c -0.1605,0.1308 -0.3334,0.2444 -0.5211,0.3407 -0.4247,0.2174 -0.884,0.326 -1.3755,0.326 z m 1.8892,-1.4051 0,-2.0101 0,0 -0.8545,0.3037 c -0.4198,0.1506 -0.7334,0.3358 -0.9408,0.5581 -0.2075,0.2198 -0.3112,0.4815 -0.3112,0.7803 0,0.242 0.0914,0.4371 0.2741,0.5853 0.1852,0.1506 0.4223,0.2247 0.7186,0.2247 0.2396,0 0.4766,-0.0518 0.7088,-0.158 0.163,-0.079 0.2988,-0.1729 0.405,-0.284 z"
   id="path3011"
   style="fill:#1f1a17;fill-rule:nonzero" />
  <path
   d="m 157.629,55.7262 c -0.3654,0.2692 -0.8692,0.405 -1.5113,0.405 -0.7136,0 -1.2717,-0.1951 -1.6718,-0.5853 -0.4,-0.3926 -0.6001,-0.9359 -0.6001,-1.6372 l 0,-3.3708 0,0 -1.1285,0 0,-0.1803 2.4373,-2.3657 0.008,0 0,1.331 0,0 2.0249,0 0,1.215 -2.0249,0 0,0 0,3.1905 c 0,0.3803 0.0913,0.6693 0.2741,0.8619 0.1852,0.1926 0.4593,0.2889 0.8248,0.2889 0.5951,-0.0049 1.0495,-0.1408 1.368,-0.405 l 0,1.252 z"
   id="path3013"
   style="fill:#1f1a17;fill-rule:nonzero" />
  <path
   d="m 161.892,56.1312 c -1.0421,0 -1.8965,-0.3235 -2.5583,-0.973 -0.6643,-0.6494 -0.9952,-1.4816 -0.9952,-2.5015 0,-1.0224 0.3309,-1.8595 0.9952,-2.509 0.6618,-0.6519 1.5162,-0.9779 2.5583,-0.9779 1.0396,0 1.8941,0.326 2.5608,0.9779 0.6643,0.6495 0.9977,1.4866 0.9977,2.509 0,1.0199 -0.3334,1.8521 -0.9977,2.5015 -0.6667,0.6495 -1.5212,0.973 -2.5608,0.973 z m 0,-1.1508 c 0.6495,0 1.1804,-0.2148 1.5903,-0.647 0.41,-0.4321 0.6149,-0.9902 0.6149,-1.6767 0,-0.689 -0.2049,-1.2496 -0.6149,-1.6842 -0.4099,-0.4346 -0.9408,-0.6519 -1.5903,-0.6519 -0.6519,0 -1.1804,0.2173 -1.5878,0.6519 -0.4075,0.4346 -0.6125,0.9952 -0.6125,1.6842 0,0.6865 0.205,1.2446 0.6125,1.6767 0.4074,0.4322 0.9359,0.647 1.5878,0.647 z"
   id="path3015"
   style="fill:#1f1a17;fill-rule:nonzero" />
  <path
   d="m 167.15,55.9781 0,-6.6552 0,0 0.6593,0 0.6569,0 0,0 0,1.541 0,0 0,0 c 0.1358,-0.2741 0.2914,-0.526 0.4717,-0.7532 0.4766,-0.6273 0.9828,-0.9409 1.5187,-0.9409 0.5828,0 1.1014,0.2667 1.5557,0.8026 l -0.7161,1.2174 -0.0148,-0.0222 c -0.4149,-0.4963 -0.7903,-0.7458 -1.1286,-0.7458 -0.4963,0 -0.8914,0.168 -1.1804,0.5063 -0.2889,0.3383 -0.4568,0.8297 -0.5062,1.4767 l 0,0 0,3.5733 0,0 -0.6569,0 -0.6593,0 z"
   id="path3017"
   style="fill:#1f1a17;fill-rule:nonzero" />
  <polygon
   points="173.993,59.5662 173.993,59.5662 173.235,59.5662 172.469,59.5662 172.469,59.5662 174.786,54.4742 174.786,54.4668 172.148,49.3229 172.148,49.3229 172.892,49.3229 173.635,49.3229 173.635,49.3229 175.517,53.1284 175.517,53.1284 175.517,53.1284 177.208,49.3229 177.208,49.3229 177.922,49.3229 178.638,49.3229 "
   id="polygon3019"
   style="fill:#1f1a17;fill-rule:nonzero" />
  <path
   d="m 77.2085,24.7627 c 0,-2.8236 -0.6667,-5.4909 -1.8497,-7.8552 l -0.0287,0.0854 -0.0805,0.1932 -0.0918,0.1799 -0.1025,0.1673 -0.1134,0.1546 -0.1237,0.1421 -0.1332,0.1289 -0.1413,0.1167 -0.1495,0.1049 -0.1561,0.0936 -0.1621,0.0832 -0.1674,0.0742 -0.1732,0.0659 -0.1778,0.0587 -0.1826,0.0523 -0.1871,0.0472 -0.174,0.0388 c -0.0395,0.0452 -0.0793,0.0901 -0.1199,0.1345 -0.0439,0.048 -0.0888,0.0951 -0.1346,0.1415 -0.0418,0.0424 -0.0843,0.0841 -0.1276,0.125 -0.0393,0.0372 -0.0791,0.0736 -0.1197,0.1092 -0.0363,0.0321 -0.0732,0.0634 -0.1106,0.0942 -0.0332,0.027 -0.0668,0.0536 -0.1008,0.0797 -0.0297,0.0225 -0.0597,0.0446 -0.0902,0.0662 -0.0378,0.0268 -0.0764,0.0527 -0.1156,0.0773 0.0419,0.0997 0.0826,0.1997 0.1221,0.3003 0.0394,0.1005 0.0778,0.2016 0.1148,0.3031 0.0227,-0.0043 0.0456,-0.0082 0.0685,-0.0119 0.0228,-0.0036 0.0457,-0.007 0.0688,-0.01 0.0369,-0.0049 0.074,-0.0091 0.1111,-0.0128 0.0427,-0.0042 0.0853,-0.0076 0.1282,-0.0102 0.0483,-0.0029 0.0967,-0.005 0.145,-0.0063 0.054,-0.0014 0.1081,-0.0018 0.1621,-0.0013 0.0594,6e-4 0.119,0.0022 0.1785,0.0048 0.0652,0.0029 0.1301,0.0069 0.195,0.0124 0.0705,0.0058 0.1408,0.0132 0.2111,0.0207 0.0759,0.008 0.1518,0.0162 0.2268,0.0303 0.0097,0.0019 0.0194,0.0038 0.0289,0.0066 0.009,0.0027 0.0179,0.0062 0.0263,0.0102 0.0086,0.0039 0.017,0.0085 0.0249,0.0138 0.0079,0.0051 0.0155,0.0109 0.0226,0.017 0.0071,0.0062 0.0138,0.0129 0.02,0.02 0.0061,0.0071 0.0119,0.0147 0.017,0.0226 0.01,0.0155 0.0176,0.0326 0.0235,0.05 0.0026,0.0078 0.0049,0.0157 0.0073,0.0235 0.0024,0.0078 0.0049,0.0157 0.0073,0.0236 0.0024,0.0079 0.0047,0.0158 0.0072,0.0236 0.0025,0.0078 0.005,0.0156 0.0072,0.0236 0.005,0.0176 0.0082,0.036 0.0088,0.0545 3e-4,0.0094 -2e-4,0.0188 -0.0014,0.0282 -0.0011,0.0094 -0.0028,0.0186 -0.0052,0.0277 -0.0024,0.0093 -0.0054,0.0182 -0.009,0.0269 -0.0037,0.0087 -0.0079,0.0172 -0.0127,0.0253 -0.0049,0.0081 -0.0102,0.016 -0.0161,0.0232 -0.0063,0.0078 -0.0133,0.0149 -0.0203,0.0219 -0.0539,0.0539 -0.112,0.1034 -0.1702,0.1529 -0.0539,0.0457 -0.1078,0.0914 -0.1628,0.136 -0.0505,0.041 -0.102,0.0808 -0.1542,0.1199 -0.0476,0.0356 -0.0959,0.0706 -0.1448,0.1046 -0.0443,0.0309 -0.0892,0.061 -0.1345,0.0901 -0.0408,0.0263 -0.0819,0.0518 -0.1235,0.0766 -0.0368,0.0219 -0.0741,0.0432 -0.1116,0.0638 -0.0327,0.0179 -0.0657,0.0353 -0.0989,0.0521 -0.0208,0.0104 -0.0416,0.0206 -0.0626,0.0305 -0.0209,0.0098 -0.0421,0.0194 -0.0633,0.0286 0.0265,0.1048 0.0531,0.2097 0.0758,0.3151 l 0.0685,0.3169 c 0,0 0.0926,-0.002 0.1391,-0.0012 0.0372,7e-4 0.0745,0.002 0.1117,0.004 0.0428,0.0022 0.0855,0.0052 0.1282,0.009 0.0482,0.0044 0.0964,0.0095 0.1444,0.0154 0.0536,0.0067 0.107,0.0143 0.1604,0.0229 0.0588,0.0094 0.1174,0.0199 0.1759,0.0314 0.0639,0.0125 0.1276,0.0262 0.191,0.0411 0.0688,0.0163 0.1372,0.0341 0.2057,0.0519 0.0736,0.0194 0.1475,0.0388 0.2196,0.0639 0.0093,0.0033 0.0187,0.0067 0.0276,0.0109 0.0086,0.0039 0.0168,0.0088 0.0246,0.014 0.0079,0.0053 0.0154,0.011 0.0224,0.0173 0.0071,0.0062 0.0137,0.013 0.0198,0.0202 0.0063,0.0071 0.0119,0.0147 0.017,0.0227 0.005,0.008 0.0095,0.0164 0.0133,0.025 0.0076,0.0168 0.0126,0.0347 0.0157,0.0528 0.0015,0.0081 0.0026,0.0163 0.0038,0.0244 0.0012,0.0082 0.0024,0.0162 0.0037,0.0244 0.0012,0.0081 0.0024,0.0162 0.0036,0.0243 0.0013,0.0081 0.0026,0.0163 0.0037,0.0245 0.0022,0.0183 0.0027,0.0369 5e-4,0.0551 -0.0012,0.0094 -0.003,0.0187 -0.0055,0.0279 -0.0025,0.009 -0.0057,0.018 -0.0094,0.0266 -0.0037,0.0087 -0.008,0.0171 -0.0129,0.0252 -0.0049,0.0081 -0.0103,0.0158 -0.0163,0.0232 -0.006,0.0073 -0.0124,0.0142 -0.0195,0.0205 -0.0073,0.0067 -0.0152,0.0126 -0.0231,0.0185 -0.0615,0.0454 -0.1263,0.0856 -0.1912,0.1259 -0.0601,0.0372 -0.1202,0.0744 -0.1811,0.1102 -0.0562,0.0329 -0.1131,0.0648 -0.1705,0.0956 -0.0524,0.0282 -0.1053,0.0555 -0.1588,0.0819 -0.0484,0.0238 -0.0972,0.0469 -0.1464,0.069 -0.0442,0.0199 -0.0887,0.0391 -0.1335,0.0573 -0.0397,0.0162 -0.0796,0.0317 -0.1199,0.0465 -0.035,0.0129 -0.0701,0.0251 -0.1056,0.0367 -0.022,0.0073 -0.0441,0.0142 -0.0664,0.0208 -0.0222,0.0067 -0.0445,0.013 -0.0669,0.019 0.0107,0.1076 0.0214,0.2151 0.0281,0.3229 l 0.0204,0.3234 c 0,0 0.092,0.0119 0.1377,0.0196 0.0368,0.0063 0.0734,0.0131 0.1099,0.0206 0.0421,0.0086 0.0838,0.018 0.1255,0.0281 0.047,0.0114 0.0939,0.0237 0.1404,0.0367 0.052,0.0146 0.1038,0.0301 0.1552,0.0465 0.0567,0.0181 0.1132,0.0373 0.1693,0.0573 0.0613,0.0218 0.1223,0.0449 0.1827,0.0692 0.0656,0.0263 0.1306,0.0542 0.1956,0.082 0.0701,0.0301 0.1402,0.0603 0.2078,0.0958 0.0087,0.0047 0.0174,0.0094 0.0256,0.0148 0.0078,0.0053 0.0153,0.0112 0.0222,0.0176 0.0071,0.0064 0.0137,0.0132 0.0197,0.0204 0.0061,0.0072 0.0116,0.015 0.0166,0.023 0.005,0.0079 0.0093,0.0163 0.0132,0.025 0.0038,0.0086 0.007,0.0176 0.0096,0.0267 0.0049,0.0177 0.0071,0.0361 0.0076,0.0545 3e-4,0.0083 1e-4,0.0165 1e-4,0.0248 0,0.0082 0,0.0164 0,0.0246 0,0.0082 0,0.0164 0,0.0246 0,0.0082 2e-4,0.0165 -1e-4,0.0248 -5e-4,0.0183 -0.0027,0.0368 -0.0076,0.0545 -0.0026,0.0091 -0.0058,0.0181 -0.0096,0.0267 -0.0039,0.0087 -0.0082,0.0171 -0.0132,0.025 -0.005,0.008 -0.0105,0.0157 -0.0166,0.023 -0.006,0.0072 -0.0126,0.014 -0.0197,0.0204 -0.0069,0.0064 -0.0144,0.0123 -0.0222,0.0175 -0.0082,0.0054 -0.0169,0.0102 -0.0256,0.0149 -0.0676,0.0355 -0.1377,0.0657 -0.2078,0.0958 -0.065,0.0278 -0.13,0.0557 -0.1956,0.082 -0.0604,0.0243 -0.1214,0.0473 -0.1827,0.0692 -0.0561,0.02 -0.1126,0.0392 -0.1693,0.0573 -0.0514,0.0164 -0.1032,0.0319 -0.1552,0.0464 -0.0465,0.0131 -0.0934,0.0254 -0.1404,0.0368 -0.0417,0.0101 -0.0834,0.0195 -0.1255,0.0281 -0.0365,0.0075 -0.0731,0.0143 -0.1099,0.0205 -0.0229,0.0039 -0.0458,0.0074 -0.0687,0.0107 -0.0229,0.0034 -0.046,0.0064 -0.069,0.009 -0.0055,0.1078 -0.0111,0.2157 -0.0204,0.3234 l -0.0281,0.3229 c -5e-4,0.0054 0.0892,0.0253 0.1333,0.0397 0.0355,0.0117 0.0706,0.0239 0.1056,0.0368 0.0251,0.0092 0.0502,0.0185 0.0751,0.0283 l 0.1559,0.0017 0.202,0.0118 0.2004,0.0218 0.1977,0.0319 0.1948,0.0423 0.1906,0.0529 0.1861,0.0642 0.1804,0.0755 0.1738,0.0874 0.1663,0.0994 0.1579,0.1123 0.1479,0.1251 0.1369,0.1384 0.1204,0.1471 0.1049,0.1464 0.0958,0.143 0.09,0.1444 0.0838,0.1454 0.0781,0.1468 0.0716,0.1477 0.0655,0.1487 0.059,0.1493 0.0527,0.1503 0.0462,0.1509 0.0394,0.1517 0.0326,0.152 0.0257,0.1523 9e-4,0.0071 c 0.3601,-1.402 0.5514,-2.8715 0.5514,-4.386 l 0,-10e-5 z M 72.0598,12.3323 C 71.7109,11.9834 71.3466,11.65 70.9694,11.3313 l -0.0045,0.0044 -0.2338,0.2193 -0.2377,0.2133 -0.2401,0.2079 -0.2416,0.2026 -0.2415,0.1981 -0.2405,0.1935 -0.2378,0.1897 -0.2342,0.1861 -0.0588,0.0469 0.0098,0.0077 c 0.0065,0.0052 0.013,0.0103 0.0194,0.0154 0.0064,0.0051 0.0129,0.0101 0.0192,0.0154 0.0141,0.0118 0.0272,0.0252 0.0379,0.0401 0.0055,0.0077 0.0105,0.0157 0.0149,0.0241 0.0044,0.0084 0.0082,0.017 0.0114,0.0259 0.0032,0.0089 0.0057,0.0181 0.0075,0.0273 0.0019,0.0093 0.0032,0.0187 0.0038,0.0281 7e-4,0.0094 7e-4,0.0189 -2e-4,0.0283 -8e-4,0.0098 -0.0026,0.0196 -0.0044,0.0293 -0.0142,0.0751 -0.0345,0.1487 -0.0546,0.2223 -0.0188,0.068 -0.0374,0.1362 -0.0579,0.204 -0.0187,0.0623 -0.0387,0.1243 -0.0597,0.1859 -0.0194,0.0564 -0.0396,0.1125 -0.0608,0.168 -0.0192,0.0505 -0.0394,0.1007 -0.0605,0.1504 -0.0188,0.0446 -0.0384,0.0888 -0.0589,0.1327 -0.018,0.0389 -0.0367,0.0774 -0.0562,0.1156 -0.0169,0.0332 -0.0344,0.0662 -0.0524,0.0989 -0.0225,0.0405 -0.046,0.0806 -0.0706,0.1197 0.1619,0.1432 0.3203,0.2902 0.4751,0.4409 0.0374,-0.0276 0.0755,-0.0539 0.1142,-0.0793 l 0.0075,-0.0045 0.0055,-0.1144 0.0236,-0.233 0.0406,-0.2312 0.0623,-0.2274 0.09,-0.2204 0.119,-0.2023 0.1811,-0.2345 0.1905,-0.2085 0.2032,-0.1882 0.2143,-0.1684 0.2245,-0.148 0.2324,-0.128 0.2395,-0.1083 0.2451,-0.0891 0.2495,-0.0695 0.2522,-0.0508 0.254,-0.0323 0.0491,-0.0027 z M 62.4801,7.4147 C 61.5521,7.2634 60.5998,7.1832 59.629,7.1832 c -1.4549,0 -2.8678,0.1779 -4.2197,0.5113 l 0.0439,0.0097 0.3137,0.1061 0.3097,0.1435 0.3034,0.1823 0.2898,0.2172 0.1423,0.1208 0.1296,0.117 0.1237,0.1205 0.1181,0.1261 0.1129,0.1341 0.1078,0.1432 0.1035,0.1545 0.0996,0.1668 0.0975,0.1818 0.0957,0.1982 0.0958,0.2172 0.0969,0.2385 0.0861,0.2267 8e-4,-0.0034 c 0.0173,-0.0627 0.0356,-0.1253 0.0553,-0.1874 0.0214,-0.0675 0.0442,-0.1344 0.0672,-0.2011 0.0247,-0.0722 0.0496,-0.1444 0.08,-0.2144 0.004,-0.009 0.0081,-0.0181 0.0129,-0.0267 0.0046,-0.0083 0.0099,-0.0161 0.0159,-0.0236 0.0058,-0.0074 0.012,-0.0144 0.0188,-0.021 0.0068,-0.0066 0.0141,-0.0127 0.0217,-0.0182 0.0075,-0.0056 0.0156,-0.0106 0.0239,-0.0151 0.0083,-0.0044 0.0171,-0.0084 0.0259,-0.0116 0.0173,-0.0062 0.0356,-0.0099 0.0539,-0.0118 0.0081,-8e-4 0.0164,-0.0012 0.0246,-0.0018 0.0082,-6e-4 0.0164,-0.0013 0.0246,-0.0019 0.0082,-6e-4 0.0164,-0.0012 0.0245,-0.0018 0.0082,-7e-4 0.0164,-0.0014 0.0247,-0.0018 0.0184,-9e-4 0.037,0 0.055,0.0036 0.0093,0.0019 0.0184,0.0044 0.0273,0.0075 0.0089,0.0032 0.0176,0.007 0.026,0.0114 0.0083,0.0044 0.0164,0.0093 0.024,0.0148 0.0078,0.0055 0.015,0.0115 0.0219,0.018 0.0069,0.0065 0.0134,0.0134 0.0192,0.0209 0.006,0.0078 0.0113,0.0161 0.0166,0.0245 0.0406,0.0646 0.0759,0.1324 0.1111,0.2 0.0327,0.0627 0.0654,0.1255 0.0965,0.1889 0.0287,0.0585 0.0561,0.1176 0.0826,0.1771 0.0242,0.0544 0.0475,0.1092 0.0697,0.1645 0.0203,0.05 0.0396,0.1005 0.058,0.1513 0.0164,0.0454 0.0323,0.0913 0.0471,0.1373 0.0132,0.0408 0.0257,0.0817 0.0374,0.1231 0.0102,0.0357 0.0198,0.0718 0.0288,0.108 0.0111,0.045 0.0211,0.0903 0.0298,0.1359 0.216,-0.0052 0.432,-0.0052 0.648,0 0.0087,-0.0456 0.0187,-0.0909 0.0298,-0.1359 0.0091,-0.0362 0.0186,-0.0723 0.0288,-0.108 0.0117,-0.0414 0.0242,-0.0823 0.0374,-0.1231 0.0148,-0.046 0.0307,-0.0919 0.0471,-0.1373 0.0184,-0.0508 0.0377,-0.1013 0.058,-0.1513 0.0222,-0.0553 0.0455,-0.1101 0.0697,-0.1645 0.0265,-0.0595 0.0539,-0.1186 0.0826,-0.1771 0.0312,-0.0634 0.0638,-0.1262 0.0965,-0.1889 0.0352,-0.0676 0.0706,-0.1354 0.1111,-0.2 0.0053,-0.0084 0.0106,-0.0167 0.0167,-0.0245 0.0058,-0.0075 0.0122,-0.0144 0.0192,-0.0209 0.0069,-0.0065 0.0141,-0.0125 0.0218,-0.018 0.0076,-0.0055 0.0157,-0.0104 0.0241,-0.0148 0.0083,-0.0044 0.017,-0.0082 0.0259,-0.0114 0.009,-0.0031 0.0181,-0.0056 0.0273,-0.0075 0.0181,-0.0036 0.0366,-0.0045 0.055,-0.0036 0.0083,4e-4 0.0165,0.0011 0.0247,0.0018 0.0081,6e-4 0.0164,0.0012 0.0246,0.0018 0.0081,6e-4 0.0163,0.0013 0.0245,0.0019 0.0082,6e-4 0.0165,10e-4 0.0246,0.0018 0.0184,0.0019 0.0367,0.0056 0.0539,0.0118 0.0089,0.0032 0.0176,0.0072 0.0259,0.0116 0.0083,0.0045 0.0164,0.0095 0.0239,0.0151 0.0076,0.0055 0.0149,0.0116 0.0217,0.0182 0.0068,0.0066 0.013,0.0136 0.0189,0.021 0.0059,0.0075 0.0112,0.0153 0.0159,0.0236 0.0047,0.0086 0.0088,0.0177 0.0128,0.0267 0.0304,0.07 0.0553,0.1422 0.08,0.2144 0.023,0.0667 0.0458,0.1336 0.0673,0.2011 0.0196,0.0621 0.038,0.1247 0.0552,0.1874 0.0159,0.0574 0.0308,0.1151 0.0445,0.1731 0.0125,0.0524 0.0241,0.1052 0.0348,0.1582 0.0095,0.0474 0.0183,0.095 0.0261,0.1428 0.007,0.0423 0.0133,0.0847 0.0187,0.1272 0.0047,0.0369 0.0088,0.0741 0.0122,0.1111 0.0043,0.0463 0.0075,0.0926 0.0092,0.1388 0.2145,0.0271 0.4281,0.0594 0.6409,0.0966 0.0153,-0.0437 0.0321,-0.087 0.0498,-0.1298 l 0.0216,-0.051 0.0171,-0.1005 0.0293,-0.191 0.027,-0.1925 0.0248,-0.1939 0.023,-0.1949 0.0214,-0.196 0.0202,-0.1969 0.0192,-0.1977 0.0185,-0.1977 0.0178,-0.1984 0.0179,-0.1985 0.0179,-0.1985 0.0185,-0.1983 0.0191,-0.198 0.0204,-0.1974 0.0216,-0.1969 0.0234,-0.1961 0.0253,-0.195 0.0276,-0.1938 0.0305,-0.1948 0.0039,-0.0208 z M 52.0762,8.885 c -5.9289,2.8253 -10.0267,8.8725 -10.0267,15.8777 0,8.4886 6.0167,15.5718 14.0181,17.2182 l -0.2112,-0.0738 -0.3428,-0.1707 -0.321,-0.2101 -0.298,-0.2446 -0.2729,-0.2752 -0.2464,-0.3017 -0.2173,-0.3247 -0.1868,-0.3438 -0.1536,-0.3598 -0.1181,-0.372 -0.0796,-0.3814 -0.0385,-0.3866 0.0062,-0.3885 0.054,-0.3863 0.1057,-0.3792 0.16,-0.3663 5e-4,-8e-4 c -0.0487,-0.0228 -0.0975,-0.0459 -0.146,-0.0693 -0.0974,-0.0468 -0.1942,-0.0948 -0.2904,-0.1439 -0.0137,0.0186 -0.0278,0.037 -0.0421,0.0552 -0.0143,0.0183 -0.0289,0.0364 -0.0436,0.0542 -0.0237,0.0287 -0.0481,0.0571 -0.0729,0.0849 -0.0283,0.032 -0.0574,0.0636 -0.087,0.0946 -0.0334,0.0351 -0.0674,0.0695 -0.102,0.1034 -0.0387,0.0377 -0.0779,0.0748 -0.1179,0.1111 -0.044,0.04 -0.0888,0.0794 -0.1342,0.1179 -0.0496,0.0422 -0.1,0.0834 -0.1512,0.1237 -0.0556,0.0437 -0.1123,0.0861 -0.169,0.1284 -0.061,0.0456 -0.1221,0.0913 -0.1869,0.1319 -0.0084,0.0052 -0.0167,0.0104 -0.0256,0.0148 -0.0084,0.0042 -0.0172,0.0077 -0.0263,0.0106 -0.009,0.0029 -0.0182,0.0052 -0.0274,0.0068 -0.0094,0.0016 -0.0187,0.0026 -0.0282,0.0028 -0.0095,4e-4 -0.0189,0 -0.0283,-10e-4 -0.0094,-0.001 -0.0187,-0.0027 -0.0279,-0.005 -0.0178,-0.0046 -0.0349,-0.012 -0.0512,-0.0208 -0.0072,-0.0038 -0.0142,-0.0081 -0.0213,-0.0122 -0.0071,-0.0041 -0.0143,-0.0082 -0.0213,-0.0123 -0.0072,-0.0041 -0.0143,-0.0083 -0.0214,-0.0123 -0.0072,-0.0041 -0.0144,-0.0081 -0.0214,-0.0124 -0.0157,-0.0096 -0.0306,-0.0209 -0.0434,-0.0341 -0.0066,-0.0067 -0.0127,-0.0139 -0.0183,-0.0215 -0.0056,-0.0077 -0.0107,-0.0157 -0.0151,-0.024 -0.0045,-0.0083 -0.0084,-0.0169 -0.0116,-0.0258 -0.0032,-0.009 -0.0059,-0.018 -0.0079,-0.0273 -0.002,-0.0091 -0.0034,-0.0185 -0.004,-0.0279 -6e-4,-0.0099 -4e-4,-0.0198 0,-0.0297 0.0029,-0.0763 0.0118,-0.1522 0.0208,-0.2279 0.0083,-0.0701 0.0168,-0.1403 0.0268,-0.2103 0.0093,-0.0646 0.0198,-0.1289 0.0315,-0.1929 0.0106,-0.0586 0.0222,-0.117 0.035,-0.1752 0.0115,-0.0527 0.024,-0.1053 0.0373,-0.1577 0.012,-0.0468 0.0248,-0.0935 0.0384,-0.1399 0.0122,-0.0412 0.0249,-0.0821 0.0384,-0.1228 0.0118,-0.0353 0.0242,-0.0705 0.0372,-0.1054 0.0162,-0.0436 0.0335,-0.0866 0.0519,-0.129 -0.0906,-0.0588 -0.1806,-0.1185 -0.2699,-0.1794 -0.0892,-0.0609 -0.1779,-0.1228 -0.2656,-0.1858 -0.0164,0.0164 -0.033,0.0325 -0.0498,0.0484 -0.0169,0.0159 -0.0341,0.0316 -0.0513,0.0471 -0.0278,0.0249 -0.056,0.0492 -0.0847,0.0731 -0.0328,0.0275 -0.0663,0.0543 -0.1001,0.0806 -0.0383,0.0297 -0.0771,0.0586 -0.1164,0.087 -0.0438,0.0315 -0.0882,0.0622 -0.133,0.0923 -0.0496,0.033 -0.0997,0.0653 -0.1503,0.0965 -0.0554,0.0343 -0.1114,0.0678 -0.168,0.0998 -0.0615,0.035 -0.1238,0.0684 -0.1861,0.1019 -0.0673,0.036 -0.1345,0.072 -0.2045,0.1026 -0.0091,0.0039 -0.0182,0.0077 -0.0277,0.0108 -0.0089,0.0029 -0.0181,0.005 -0.0275,0.0064 -0.0093,0.0015 -0.0187,0.0024 -0.0281,0.0027 -0.0095,2e-4 -0.019,-3e-4 -0.0284,-0.0014 C 50.3806,36.5966 50.3712,36.5948 50.3621,36.5924 50.353,36.59 50.344,36.587 50.3354,36.5834 50.3183,36.5761 50.3025,36.5664 50.2878,36.5553 50.2813,36.5504 50.2749,36.545 50.2685,36.5399 50.2622,36.5348 50.2557,36.5297 50.2493,36.5246 50.2428,36.5194 50.2363,36.5143 50.2299,36.5092 50.2235,36.5041 50.217,36.4991 50.2107,36.4938 50.1966,36.482 50.1836,36.4686 50.1728,36.4537 50.1673,36.446 50.1624,36.438 50.1579,36.4296 c -0.0044,-0.0084 -0.0082,-0.017 -0.0113,-0.026 -0.0033,-0.0088 -0.0057,-0.018 -0.0076,-0.0273 -0.0019,-0.0092 -0.0031,-0.0186 -0.0038,-0.028 -6e-4,-0.0094 -6e-4,-0.0189 2e-4,-0.0283 9e-4,-0.0098 0.0026,-0.0196 0.0045,-0.0293 0.0141,-0.0751 0.0344,-0.1487 0.0545,-0.2223 0.0188,-0.0681 0.0375,-0.1362 0.0579,-0.204 0.0187,-0.0623 0.0387,-0.1244 0.0597,-0.186 0.0195,-0.0563 0.0396,-0.1124 0.0608,-0.1681 0.0192,-0.0504 0.0395,-0.1005 0.0605,-0.1502 0.0188,-0.0446 0.0384,-0.0888 0.0589,-0.1327 0.018,-0.039 0.0367,-0.0775 0.0562,-0.1156 0.0169,-0.0333 0.0344,-0.0663 0.0525,-0.0989 0.0112,-0.0202 0.0227,-0.0404 0.0344,-0.0603 0.0118,-0.0201 0.0238,-0.0399 0.0361,-0.0594 -0.1619,-0.1432 -0.3203,-0.2902 -0.475,-0.4409 -0.0187,0.0137 -0.0376,0.0273 -0.0567,0.0405 -0.019,0.0132 -0.0382,0.0261 -0.0576,0.0388 -0.0312,0.0206 -0.0627,0.0404 -0.0947,0.0597 -0.0365,0.0222 -0.0736,0.0439 -0.111,0.0647 -0.0423,0.0237 -0.0849,0.0465 -0.1281,0.0687 -0.0479,0.0247 -0.0964,0.0484 -0.1451,0.0715 -0.054,0.0254 -0.1085,0.0496 -0.1632,0.073 -0.0598,0.0258 -0.1202,0.0503 -0.1809,0.0737 -0.0661,0.0253 -0.1326,0.0491 -0.1992,0.0729 -0.0719,0.0256 -0.1438,0.0512 -0.2175,0.071 -0.0096,0.0025 -0.0191,0.005 -0.0289,0.0066 -0.0093,0.0015 -0.0189,0.0022 -0.0283,0.0023 -0.0094,0 -0.0188,-5e-4 -0.0282,-0.0017 -0.0093,-0.0012 -0.0187,-0.003 -0.0277,-0.0055 -0.0092,-0.0025 -0.0181,-0.0057 -0.0268,-0.0094 -0.0087,-0.0037 -0.0171,-0.008 -0.0252,-0.0129 -0.0156,-0.0097 -0.0298,-0.0217 -0.0427,-0.0348 -0.0058,-0.006 -0.0113,-0.0121 -0.0169,-0.0181 -0.0055,-0.0061 -0.0112,-0.0121 -0.0168,-0.0181 -0.0055,-0.006 -0.011,-0.012 -0.0167,-0.0181 -0.0055,-0.0059 -0.0112,-0.0119 -0.0167,-0.0181 -0.0122,-0.0139 -0.0231,-0.0289 -0.0316,-0.0453 -0.0043,-0.0083 -0.008,-0.017 -0.0111,-0.026 -0.003,-0.0089 -0.0055,-0.0181 -0.0073,-0.0274 -0.0018,-0.0093 -0.003,-0.0186 -0.0034,-0.0281 -5e-4,-0.0094 -3e-4,-0.0188 4e-4,-0.0282 8e-4,-0.0095 0.0023,-0.0189 0.0045,-0.0281 0.0023,-0.0095 0.0054,-0.019 0.0087,-0.0283 0.0252,-0.072 0.0561,-0.1419 0.0871,-0.2116 0.0287,-0.0646 0.0573,-0.1292 0.0875,-0.1931 0.0279,-0.0589 0.0569,-0.1173 0.0869,-0.1749 0.0276,-0.053 0.0559,-0.1054 0.0851,-0.1572 0.0267,-0.047 0.0539,-0.0936 0.0822,-0.1396 0.0253,-0.0414 0.0512,-0.0822 0.078,-0.1226 0.0237,-0.0357 0.048,-0.071 0.0728,-0.1058 0.0218,-0.0304 0.0439,-0.0604 0.0666,-0.0899 0.0284,-0.0368 0.0575,-0.0729 0.0877,-0.108 -0.0694,-0.0828 -0.1376,-0.1665 -0.205,-0.2509 -0.0673,-0.0846 -0.1338,-0.1698 -0.1991,-0.2559 -0.0205,0.0109 -0.0411,0.0215 -0.062,0.0317 -0.0208,0.0102 -0.0417,0.0201 -0.0627,0.0298 -0.034,0.0156 -0.0681,0.0305 -0.1025,0.0449 -0.0395,0.0166 -0.0794,0.0324 -0.1194,0.0475 -0.0454,0.017 -0.0909,0.0333 -0.1369,0.0488 -0.0511,0.0172 -0.1026,0.0336 -0.1543,0.049 -0.0571,0.0171 -0.1145,0.0329 -0.1722,0.048 -0.063,0.0164 -0.1263,0.0317 -0.1899,0.0458 -0.069,0.0152 -0.1384,0.0289 -0.2078,0.0424 -0.0749,0.0146 -0.1498,0.0293 -0.2257,0.0378 -0.0098,0.0012 -0.0196,0.0022 -0.0295,0.0022 -0.0095,2e-4 -0.0189,-6e-4 -0.0282,-0.0018 -0.0095,-0.0014 -0.0187,-0.0033 -0.0278,-0.0059 -0.0091,-0.0025 -0.018,-0.0059 -0.0266,-0.0097 -0.0086,-0.0038 -0.017,-0.0083 -0.025,-0.0133 -0.0081,-0.0049 -0.0158,-0.0104 -0.023,-0.0165 -0.0141,-0.0119 -0.0263,-0.0258 -0.0371,-0.0408 -0.0048,-0.0067 -0.0093,-0.0136 -0.0139,-0.0204 -0.0046,-0.0068 -0.0093,-0.0135 -0.014,-0.0203 -0.0046,-0.0068 -0.0092,-0.0136 -0.0138,-0.0204 -0.0047,-0.0067 -0.0095,-0.0134 -0.0139,-0.0204 -0.0099,-0.0155 -0.0184,-0.032 -0.0244,-0.0495 -0.003,-0.0089 -0.0053,-0.0181 -0.007,-0.0273 -0.0018,-0.0095 -0.0028,-0.0188 -0.0032,-0.0282 -4e-4,-0.0095 -2e-4,-0.0189 8e-4,-0.0283 9e-4,-0.0094 0.0025,-0.0187 0.0046,-0.0279 0.0022,-0.0093 0.005,-0.0183 0.0085,-0.027 0.0037,-0.0092 0.0083,-0.018 0.0129,-0.0267 0.0357,-0.0676 0.0766,-0.132 0.1175,-0.1964 0.0381,-0.0595 0.0762,-0.1191 0.1156,-0.1779 0.0361,-0.0541 0.0736,-0.1073 0.1119,-0.16 0.0351,-0.0481 0.0709,-0.0958 0.1077,-0.1427 0.0332,-0.0425 0.0673,-0.0846 0.102,-0.1258 0.0311,-0.0371 0.063,-0.0736 0.0954,-0.1096 0.0286,-0.0317 0.0579,-0.063 0.0878,-0.0938 0.026,-0.0268 0.0523,-0.053 0.0792,-0.0789 0.0335,-0.0322 0.0676,-0.0635 0.1029,-0.0938 -0.0563,-0.0922 -0.1115,-0.1851 -0.1655,-0.2786 -0.054,-0.0937 -0.1069,-0.1878 -0.1587,-0.2827 -0.0219,0.0077 -0.0439,0.0149 -0.0659,0.022 -0.0222,0.007 -0.0444,0.0138 -0.0666,0.0202 -0.0358,0.0104 -0.0718,0.0201 -0.108,0.0292 -0.0415,0.0104 -0.0833,0.0201 -0.1251,0.029 -0.0475,0.0102 -0.095,0.0195 -0.1427,0.028 -0.0532,0.0094 -0.1064,0.0179 -0.1599,0.0254 -0.059,0.0083 -0.1181,0.0156 -0.1773,0.0218 -0.0648,0.0068 -0.1298,0.0126 -0.1947,0.017 -0.0705,0.0048 -0.1411,0.0079 -0.2118,0.011 -0.0762,0.0033 -0.1525,0.0066 -0.2288,0.0037 -0.0099,-4e-4 -0.0197,-9e-4 -0.0295,-0.0022 -0.0095,-0.0013 -0.0187,-0.0034 -0.0277,-0.0061 -0.009,-0.0027 -0.0179,-0.0061 -0.0265,-0.01 -0.0086,-0.0038 -0.0169,-0.0084 -0.0249,-0.0134 -0.008,-0.0051 -0.0156,-0.0107 -0.0229,-0.0169 -0.0071,-0.0061 -0.0138,-0.0127 -0.0201,-0.0198 -0.0121,-0.0138 -0.0222,-0.0295 -0.0305,-0.0459 -0.0038,-0.0073 -0.0073,-0.0147 -0.0108,-0.0221 -0.0037,-0.0075 -0.0072,-0.0149 -0.0108,-0.0222 -0.0036,-0.0074 -0.0071,-0.015 -0.0107,-0.0223 -0.0036,-0.0074 -0.0073,-0.0148 -0.0107,-0.0222 -0.0075,-0.0168 -0.0135,-0.0344 -0.0167,-0.0526 -0.0016,-0.0093 -0.0026,-0.0187 -0.0029,-0.0282 -3e-4,-0.0094 1e-4,-0.0188 0.0011,-0.0282 10e-4,-0.0094 0.0026,-0.0187 0.0049,-0.028 0.0023,-0.0091 0.0053,-0.0181 0.0088,-0.0268 0.0035,-0.0087 0.0077,-0.0173 0.0125,-0.0254 0.005,-0.0085 0.0108,-0.0165 0.0167,-0.0246 0.0454,-0.0614 0.0954,-0.119 0.1455,-0.1765 0.0465,-0.0532 0.0929,-0.1065 0.1407,-0.1588 0.0439,-0.048 0.0888,-0.0951 0.1346,-0.1416 0.0418,-0.0423 0.0844,-0.0841 0.1276,-0.125 0.0393,-0.0371 0.0791,-0.0735 0.1197,-0.1091 0.0363,-0.0321 0.0732,-0.0634 0.1107,-0.0942 0.0331,-0.0271 0.0667,-0.0537 0.1007,-0.0797 0.0297,-0.0225 0.0597,-0.0446 0.0903,-0.0662 0.0378,-0.0268 0.0763,-0.0527 0.1155,-0.0773 -0.0419,-0.0997 -0.0825,-0.1998 -0.1221,-0.3003 -0.0394,-0.1005 -0.0777,-0.2017 -0.1147,-0.3031 -0.0228,0.0043 -0.0457,0.0083 -0.0685,0.0119 -0.0229,0.0036 -0.0458,0.007 -0.0689,0.01 -0.0369,0.0049 -0.074,0.0091 -0.111,0.0128 -0.0427,0.0042 -0.0854,0.0075 -0.1283,0.0102 -0.0482,0.0029 -0.0967,0.005 -0.145,0.0063 -0.054,0.0014 -0.108,0.0018 -0.1621,0.0013 -0.0594,-6e-4 -0.119,-0.0022 -0.1785,-0.0049 -0.0651,-0.0029 -0.13,-0.0069 -0.195,-0.0123 -0.0705,-0.0058 -0.1408,-0.0132 -0.2111,-0.0207 -0.0759,-0.0081 -0.1517,-0.0162 -0.2268,-0.0304 -0.0097,-0.0018 -0.0194,-0.0037 -0.0289,-0.0066 -0.009,-0.0026 -0.0178,-0.0061 -0.0263,-0.0101 -0.0086,-0.004 -0.0169,-0.0086 -0.0249,-0.0138 -0.0079,-0.0051 -0.0155,-0.0109 -0.0226,-0.017 -0.007,-0.0062 -0.0137,-0.0129 -0.0199,-0.0201 -0.0062,-0.007 -0.0119,-0.0146 -0.0171,-0.0225 -0.01,-0.0155 -0.0176,-0.0326 -0.0235,-0.05 -0.0026,-0.0078 -0.0049,-0.0157 -0.0073,-0.0235 -0.0024,-0.0079 -0.0049,-0.0157 -0.0072,-0.0236 -0.0025,-0.0079 -0.0048,-0.0158 -0.0073,-0.0236 -0.0025,-0.0078 -0.005,-0.0156 -0.0072,-0.0236 -0.005,-0.0176 -0.0082,-0.036 -0.0087,-0.0545 -3e-4,-0.0094 10e-5,-0.0188 0.0013,-0.0282 0.0011,-0.0094 0.0028,-0.0186 0.0052,-0.0278 0.0024,-0.0092 0.0054,-0.0182 0.009,-0.0269 0.0037,-0.0087 0.0079,-0.0171 0.0127,-0.0252 0.0049,-0.0081 0.0103,-0.016 0.0162,-0.0233 0.0062,-0.0077 0.0132,-0.0148 0.0202,-0.0218 0.0539,-0.0539 0.112,-0.1034 0.1702,-0.1529 0.0539,-0.0457 0.1078,-0.0914 0.1628,-0.136 0.0505,-0.041 0.102,-0.0808 0.1542,-0.1199 0.0476,-0.0356 0.096,-0.0706 0.1449,-0.1046 0.0442,-0.0309 0.0891,-0.061 0.1344,-0.0902 0.0408,-0.0262 0.0819,-0.0518 0.1235,-0.0765 0.0368,-0.0219 0.0741,-0.0433 0.1116,-0.0638 0.0327,-0.0179 0.0657,-0.0353 0.0989,-0.0521 0.0415,-0.0208 0.0834,-0.0407 0.1259,-0.0592 -0.0265,-0.1048 -0.0519,-0.2098 -0.0758,-0.3151 -0.024,-0.1054 -0.0469,-0.2109 -0.0684,-0.3168 -0.0232,9e-4 -0.0463,0.0014 -0.0695,0.0015 -0.0232,2e-4 -0.0464,1e-4 -0.0697,-3e-4 -0.0372,-7e-4 -0.0745,-0.002 -0.1117,-0.004 -0.0428,-0.0022 -0.0855,-0.0052 -0.1282,-0.009 -0.0482,-0.0044 -0.0964,-0.0095 -0.1443,-0.0154 -0.0537,-0.0067 -0.1071,-0.0144 -0.1604,-0.0229 -0.0589,-0.0094 -0.1175,-0.0199 -0.176,-0.0314 -0.0639,-0.0125 -0.1275,-0.0262 -0.1909,-0.0411 -0.0689,-0.0163 -0.1373,-0.0341 -0.2058,-0.052 -0.0736,-0.0193 -0.1475,-0.0387 -0.2196,-0.0639 -0.0093,-0.0032 -0.0187,-0.0066 -0.0276,-0.0108 -0.0086,-0.004 -0.0168,-0.0088 -0.0246,-0.014 -0.0079,-0.0053 -0.0154,-0.011 -0.0224,-0.0173 -0.0071,-0.0062 -0.0137,-0.013 -0.0198,-0.0202 -0.0062,-0.0071 -0.0119,-0.0148 -0.0169,-0.0227 -0.0051,-0.008 -0.0096,-0.0164 -0.0134,-0.025 -0.0076,-0.0168 -0.0126,-0.0347 -0.0157,-0.0528 -0.0015,-0.0081 -0.0026,-0.0164 -0.0038,-0.0245 -0.0011,-0.0081 -0.0024,-0.0162 -0.0036,-0.0244 -0.0012,-0.008 -0.0025,-0.0162 -0.0037,-0.0242 -0.0013,-0.0082 -0.0026,-0.0163 -0.0036,-0.0245 -0.0022,-0.0183 -0.0028,-0.0369 -6e-4,-0.0551 0.0012,-0.0094 0.003,-0.0187 0.0055,-0.0279 0.0025,-0.009 0.0057,-0.018 0.0094,-0.0267 0.0037,-0.0086 0.008,-0.017 0.0129,-0.0251 0.0049,-0.0081 0.0104,-0.0158 0.0163,-0.0232 0.006,-0.0073 0.0124,-0.0143 0.0195,-0.0206 0.0073,-0.0066 0.0152,-0.0125 0.0232,-0.0184 0.0614,-0.0454 0.1262,-0.0856 0.1911,-0.1259 0.0601,-0.0372 0.1202,-0.0745 0.1811,-0.1102 0.0562,-0.033 0.1131,-0.0648 0.1705,-0.0956 0.0524,-0.0283 0.1053,-0.0556 0.1588,-0.0819 0.0484,-0.0238 0.0972,-0.047 0.1464,-0.069 0.0442,-0.0199 0.0887,-0.0391 0.1335,-0.0573 0.0398,-0.0162 0.0796,-0.0317 0.1199,-0.0465 0.035,-0.0129 0.0702,-0.0251 0.1056,-0.0368 0.0441,-0.0144 0.0885,-0.0278 0.1333,-0.0397 -0.0107,-0.1076 -0.0201,-0.2153 -0.0281,-0.3229 -0.008,-0.1078 -0.0149,-0.2156 -0.0203,-0.3234 -0.0231,-0.0026 -0.0461,-0.0056 -0.069,-0.009 -0.0229,-0.0033 -0.0458,-0.0068 -0.0688,-0.0107 -0.0367,-0.0062 -0.0733,-0.013 -0.1099,-0.0205 -0.042,-0.0086 -0.0838,-0.018 -0.1254,-0.0281 -0.0471,-0.0114 -0.094,-0.0237 -0.1405,-0.0368 -0.052,-0.0145 -0.1038,-0.03 -0.1552,-0.0464 -0.0567,-0.0181 -0.1132,-0.0373 -0.1692,-0.0573 -0.0613,-0.0219 -0.1223,-0.0449 -0.1828,-0.0692 -0.0656,-0.0263 -0.1306,-0.0542 -0.1956,-0.082 -0.0701,-0.0301 -0.1402,-0.0603 -0.2077,-0.0958 -0.0088,-0.0047 -0.0174,-0.0095 -0.0257,-0.0149 -0.0078,-0.0052 -0.0153,-0.0111 -0.0222,-0.0175 -0.0071,-0.0064 -0.0137,-0.0132 -0.0197,-0.0204 -0.0061,-0.0073 -0.0116,-0.015 -0.0165,-0.023 -0.005,-0.0079 -0.0094,-0.0163 -0.0133,-0.025 -0.0037,-0.0086 -0.007,-0.0176 -0.0095,-0.0267 -0.005,-0.0177 -0.0072,-0.0362 -0.0077,-0.0545 -2e-4,-0.0083 -10e-5,-0.0166 -10e-5,-0.0248 0,-0.0082 0,-0.0164 0,-0.0246 0,-0.0082 0,-0.0164 0,-0.0246 0,-0.0083 -1e-4,-0.0165 10e-5,-0.0248 5e-4,-0.0184 0.0027,-0.0368 0.0077,-0.0545 0.0025,-0.0091 0.0058,-0.0181 0.0095,-0.0267 0.0039,-0.0087 0.0083,-0.0171 0.0133,-0.025 0.0049,-0.008 0.0104,-0.0158 0.0165,-0.023 0.006,-0.0072 0.0126,-0.014 0.0197,-0.0204 0.0069,-0.0064 0.0144,-0.0123 0.0222,-0.0176 0.0083,-0.0054 0.0169,-0.0101 0.0257,-0.0148 0.0675,-0.0355 0.1376,-0.0657 0.2077,-0.0958 0.065,-0.0278 0.13,-0.0557 0.1956,-0.082 0.0605,-0.0243 0.1215,-0.0474 0.1828,-0.0692 0.056,-0.02 0.1125,-0.0392 0.1692,-0.0573 0.0514,-0.0164 0.1032,-0.0319 0.1552,-0.0465 0.0465,-0.013 0.0934,-0.0253 0.1405,-0.0367 0.0416,-0.0101 0.0834,-0.0195 0.1254,-0.0281 0.0366,-0.0075 0.0732,-0.0143 0.1099,-0.0206 0.0458,-0.0077 0.0916,-0.0144 0.1378,-0.0196 0.0054,-0.1078 0.0123,-0.2156 0.0203,-0.3234 0.008,-0.1077 0.0174,-0.2153 0.0281,-0.3229 -0.0224,-0.006 -0.0447,-0.0123 -0.0669,-0.019 C 46.083,23.4036 46.0609,23.3967 46.0389,23.3894 46.0035,23.3778 45.9683,23.3656 45.9333,23.3527 45.893,23.3379 45.8532,23.3224 45.8134,23.3062 45.7686,23.288 45.7241,23.2688 45.6799,23.2489 45.6307,23.2268 45.5819,23.2037 45.5335,23.1799 45.48,23.1535 45.4271,23.1262 45.3747,23.098 45.3173,23.0672 45.2604,23.0353 45.2042,23.0024 45.1433,22.9666 45.0832,22.9294 45.0231,22.8922 44.9582,22.8519 44.8934,22.8117 44.832,22.7663 44.824,22.7604 44.8161,22.7545 44.8088,22.7478 44.8017,22.7415 44.7953,22.7346 44.7893,22.7273 44.7834,22.7199 44.7779,22.7122 44.773,22.7041 44.7681,22.696 44.7638,22.6876 44.7601,22.6789 c -0.0037,-0.0086 -0.0069,-0.0176 -0.0094,-0.0266 -0.0025,-0.0092 -0.0043,-0.0185 -0.0055,-0.0279 -0.0022,-0.0182 -0.0016,-0.0368 6e-4,-0.0551 10e-4,-0.0082 0.0023,-0.0164 0.0036,-0.0245 0.0012,-0.0081 0.0025,-0.0162 0.0037,-0.0243 0.0012,-0.0082 0.0025,-0.0162 0.0036,-0.0244 0.0012,-0.0081 0.0023,-0.0163 0.0038,-0.0244 0.0031,-0.0181 0.0081,-0.036 0.0157,-0.0528 0.0038,-0.0086 0.0083,-0.017 0.0134,-0.025 0.005,-0.008 0.0107,-0.0156 0.0169,-0.0227 0.0061,-0.0072 0.0127,-0.014 0.0198,-0.0202 0.007,-0.0063 0.0145,-0.012 0.0224,-0.0173 0.0078,-0.0052 0.016,-0.0101 0.0246,-0.014 0.0089,-0.0042 0.0183,-0.0076 0.0276,-0.0109 0.0721,-0.0251 0.146,-0.0445 0.2196,-0.0639 0.0685,-0.0178 0.1369,-0.0356 0.2058,-0.0519 0.0634,-0.0149 0.127,-0.0286 0.1909,-0.0411 0.0585,-0.0115 0.1171,-0.022 0.176,-0.0314 0.0533,-0.0086 0.1067,-0.0162 0.1604,-0.0229 0.0479,-0.0059 0.0961,-0.011 0.1443,-0.0154 0.0427,-0.0038 0.0854,-0.0068 0.1282,-0.009 0.0372,-0.002 0.0745,-0.0033 0.1117,-0.004 0.0465,-8e-4 0.0929,-6e-4 0.1392,0.0012 0.0215,-0.1059 0.0444,-0.2114 0.0684,-0.3169 0.0239,-0.1052 0.0493,-0.2103 0.0758,-0.3151 -0.0212,-0.0092 -0.0424,-0.0188 -0.0633,-0.0286 -0.021,-0.0099 -0.0418,-0.0201 -0.0626,-0.0305 -0.0332,-0.0168 -0.0662,-0.0342 -0.0989,-0.0521 -0.0375,-0.0206 -0.0748,-0.0419 -0.1116,-0.0638 -0.0416,-0.0248 -0.0827,-0.0503 -0.1235,-0.0766 -0.0453,-0.0291 -0.0902,-0.0592 -0.1344,-0.0901 -0.0489,-0.034 -0.0973,-0.069 -0.1449,-0.1046 -0.0522,-0.0391 -0.1037,-0.0789 -0.1542,-0.1199 -0.055,-0.0446 -0.1089,-0.0903 -0.1628,-0.136 -0.0582,-0.0495 -0.1163,-0.099 -0.1702,-0.1529 -0.007,-0.007 -0.014,-0.0141 -0.0202,-0.0219 -0.0059,-0.0072 -0.0113,-0.0151 -0.0162,-0.0232 -0.0048,-0.0081 -0.009,-0.0166 -0.0127,-0.0253 -0.0036,-0.0087 -0.0066,-0.0176 -0.009,-0.0269 -0.0024,-0.0091 -0.0041,-0.0183 -0.0052,-0.0277 -0.0012,-0.0094 -0.0016,-0.0188 -0.0013,-0.0282 5e-4,-0.0185 0.0037,-0.0369 0.0087,-0.0545 0.0022,-0.008 0.0047,-0.0158 0.0072,-0.0236 0.0025,-0.0078 0.0048,-0.0157 0.0073,-0.0236 0.0023,-0.0079 0.0048,-0.0158 0.0072,-0.0236 0.0024,-0.0078 0.0047,-0.0157 0.0073,-0.0235 0.0059,-0.0174 0.0135,-0.0345 0.0235,-0.05 0.0052,-0.0079 0.0109,-0.0155 0.0171,-0.0226 0.0062,-0.0071 0.0129,-0.0138 0.0199,-0.02 0.0071,-0.0061 0.0147,-0.0119 0.0226,-0.017 0.008,-0.0053 0.0163,-0.0099 0.0249,-0.0138 0.0085,-0.004 0.0173,-0.0075 0.0263,-0.0102 0.0095,-0.0028 0.0192,-0.0047 0.0289,-0.0066 0.0751,-0.0141 0.1509,-0.0223 0.2268,-0.0303 0.0703,-0.0075 0.1406,-0.0149 0.2111,-0.0207 0.065,-0.0055 0.1299,-0.0095 0.195,-0.0124 0.0595,-0.0026 0.1191,-0.0042 0.1785,-0.0048 0.0541,-5e-4 0.1081,-10e-5 0.1621,0.0013 0.0483,0.0013 0.0968,0.0034 0.145,0.0063 0.0429,0.0026 0.0856,0.006 0.1283,0.0102 0.037,0.0037 0.0741,0.0079 0.111,0.0128 0.0461,0.0061 0.0917,0.0133 0.1374,0.0219 0.037,-0.1015 0.0753,-0.2026 0.1147,-0.3031 0.0396,-0.1005 0.0802,-0.2006 0.1221,-0.3003 C 47.1239,19.4974 47.0854,19.4715 47.0476,19.4447 47.017,19.4231 46.987,19.401 46.9573,19.3785 46.9233,19.3524 46.8897,19.3258 46.8566,19.2988 46.8191,19.268 46.7822,19.2367 46.7459,19.2046 46.7053,19.169 46.6655,19.1326 46.6262,19.0954 46.583,19.0545 46.5404,19.0128 46.4986,18.9704 46.4528,18.924 46.4079,18.8769 46.364,18.8289 46.3162,18.7766 46.2698,18.7233 46.2233,18.6701 46.1732,18.6125 46.1232,18.5549 46.0778,18.4936 46.0719,18.4855 46.0661,18.4774 46.0611,18.469 c -0.0048,-0.0081 -0.009,-0.0167 -0.0125,-0.0254 -0.0035,-0.0088 -0.0065,-0.0177 -0.0088,-0.0268 -0.0023,-0.0093 -0.0039,-0.0186 -0.0049,-0.028 -10e-4,-0.0094 -0.0014,-0.0188 -0.0011,-0.0283 3e-4,-0.0094 0.0013,-0.0188 0.0029,-0.0281 0.0032,-0.0182 0.0092,-0.0358 0.0167,-0.0526 0.0034,-0.0075 0.0071,-0.0149 0.0107,-0.0222 0.0036,-0.0074 0.0071,-0.0149 0.0107,-0.0223 0.0036,-0.0074 0.0071,-0.0148 0.0108,-0.0222 0.0035,-0.0074 0.007,-0.0148 0.0108,-0.0221 0.0083,-0.0164 0.0184,-0.0321 0.0305,-0.046 0.0063,-0.0071 0.013,-0.0137 0.0201,-0.0198 0.0073,-0.0061 0.0149,-0.0117 0.0229,-0.0168 0.008,-0.005 0.0163,-0.0096 0.0249,-0.0135 0.0086,-0.0038 0.0175,-0.0072 0.0265,-0.01 0.009,-0.0026 0.0182,-0.0047 0.0277,-0.006 0.0098,-0.0014 0.0196,-0.0019 0.0295,-0.0023 0.0763,-0.0028 0.1526,4e-4 0.2288,0.0038 0.0707,0.0031 0.1413,0.0062 0.2118,0.011 0.0649,0.0044 0.1299,0.0101 0.1947,0.017 0.0592,0.0062 0.1183,0.0135 0.1773,0.0218 0.0535,0.0075 0.1067,0.016 0.1599,0.0254 0.0477,0.0085 0.0952,0.0178 0.1427,0.028 0.0418,0.0089 0.0836,0.0186 0.1251,0.029 0.0362,0.0091 0.0722,0.0188 0.108,0.0292 0.0445,0.0129 0.0887,0.0268 0.1325,0.0421 0.1036,-0.1896 0.2116,-0.3768 0.3242,-0.5612 -0.0353,-0.0303 -0.0694,-0.0617 -0.1029,-0.0938 -0.0269,-0.0259 -0.0532,-0.0521 -0.0792,-0.0789 -0.0299,-0.0308 -0.0592,-0.0621 -0.0878,-0.0938 -0.0324,-0.0361 -0.0643,-0.0725 -0.0954,-0.1096 -0.0347,-0.0413 -0.0688,-0.0833 -0.102,-0.1258 -0.0368,-0.0469 -0.0726,-0.0946 -0.1077,-0.1427 -0.0383,-0.0527 -0.0758,-0.1059 -0.1119,-0.16 -0.0394,-0.0588 -0.0775,-0.1184 -0.1156,-0.178 -0.0409,-0.0643 -0.0818,-0.1287 -0.1175,-0.1963 -0.0046,-0.0087 -0.0092,-0.0176 -0.0129,-0.0267 -0.0035,-0.0087 -0.0063,-0.0177 -0.0085,-0.027 -0.0021,-0.0092 -0.0037,-0.0185 -0.0046,-0.0279 -0.001,-0.0094 -0.0012,-0.0189 -8e-4,-0.0283 4e-4,-0.0094 0.0014,-0.0188 0.0032,-0.0282 0.0017,-0.0093 0.004,-0.0184 0.007,-0.0273 0.006,-0.0175 0.0145,-0.034 0.0244,-0.0496 0.0044,-0.0069 0.0092,-0.0136 0.0139,-0.0204 0.0046,-0.0067 0.0092,-0.0135 0.0138,-0.0203 0.0047,-0.0068 0.0094,-0.0136 0.014,-0.0203 0.0046,-0.0069 0.0091,-0.0137 0.0139,-0.0204 0.0108,-0.015 0.023,-0.0289 0.0371,-0.0408 0.0072,-0.0061 0.0149,-0.0116 0.023,-0.0166 0.008,-0.005 0.0164,-0.0095 0.025,-0.0132 0.0086,-0.0038 0.0175,-0.0072 0.0266,-0.0097 0.0091,-0.0026 0.0183,-0.0045 0.0278,-0.0059 0.0093,-0.0012 0.0187,-0.002 0.0282,-0.0019 0.0099,10e-5 0.0197,0.0011 0.0295,0.0023 0.0759,0.0085 0.1508,0.0231 0.2257,0.0378 0.0694,0.0135 0.1388,0.0271 0.2078,0.0423 0.0636,0.0142 0.1269,0.0295 0.1899,0.0459 0.0577,0.015 0.1151,0.0309 0.1722,0.048 0.0517,0.0154 0.1032,0.0318 0.1543,0.049 0.046,0.0154 0.0915,0.0317 0.1369,0.0488 0.04,0.0151 0.0799,0.0309 0.1194,0.0474 0.0344,0.0144 0.0685,0.0294 0.1025,0.045 0.042,0.0194 0.0837,0.0397 0.1247,0.0615 0.1307,-0.1722 0.2655,-0.3412 0.4041,-0.5069 -0.0302,-0.0351 -0.0593,-0.0712 -0.0877,-0.1079 -0.0227,-0.0295 -0.0448,-0.0595 -0.0666,-0.0899 -0.0248,-0.0348 -0.0491,-0.0702 -0.0728,-0.1058 -0.0268,-0.0404 -0.0527,-0.0813 -0.078,-0.1226 -0.0283,-0.0461 -0.0555,-0.0926 -0.0822,-0.1396 -0.0292,-0.0518 -0.0575,-0.1043 -0.0851,-0.1572 -0.03,-0.0576 -0.059,-0.116 -0.0869,-0.1749 -0.0302,-0.0639 -0.0588,-0.1286 -0.0875,-0.1932 -0.031,-0.0697 -0.0619,-0.1395 -0.0871,-0.2115 -0.0033,-0.0094 -0.0064,-0.0188 -0.0087,-0.0284 -0.0022,-0.0091 -0.0037,-0.0185 -0.0045,-0.028 -7e-4,-0.0094 -9e-4,-0.0189 -4e-4,-0.0282 4e-4,-0.0095 0.0016,-0.0189 0.0034,-0.0281 0.0018,-0.0093 0.0043,-0.0185 0.0073,-0.0274 0.0031,-0.009 0.0068,-0.0177 0.0111,-0.0261 0.0085,-0.0163 0.0194,-0.0314 0.0316,-0.0452 0.0055,-0.0062 0.0112,-0.0122 0.0167,-0.0182 0.0057,-0.006 0.0112,-0.012 0.0167,-0.0181 0.0056,-0.0059 0.0113,-0.012 0.0168,-0.018 0.0056,-0.0061 0.0111,-0.0121 0.0169,-0.0181 0.0129,-0.0131 0.0271,-0.0251 0.0427,-0.0348 0.0081,-0.0049 0.0165,-0.0092 0.0252,-0.0129 0.0087,-0.0038 0.0176,-0.007 0.0268,-0.0095 0.009,-0.0024 0.0184,-0.0042 0.0277,-0.0055 0.0094,-0.0011 0.0188,-0.0016 0.0282,-0.0016 0.0094,10e-5 0.019,8e-4 0.0283,0.0023 0.0098,0.0016 0.0193,0.004 0.0289,0.0066 0.0737,0.0197 0.1456,0.0453 0.2175,0.071 0.0666,0.0238 0.1331,0.0476 0.1992,0.0729 0.0607,0.0233 0.1211,0.0479 0.1809,0.0736 0.0547,0.0235 0.1092,0.0477 0.1632,0.0731 0.0487,0.023 0.0972,0.0468 0.1451,0.0714 0.0432,0.0223 0.0858,0.0451 0.1281,0.0688 0.0374,0.0208 0.0745,0.0424 0.111,0.0647 0.032,0.0193 0.0635,0.0391 0.0947,0.0597 0.0387,0.0254 0.0769,0.0517 0.1143,0.0793 0.1547,-0.1507 0.3131,-0.2977 0.475,-0.4409 C 50.6468,14.5931 50.6233,14.553 50.6009,14.5125 50.5828,14.4798 50.5653,14.4468 50.5484,14.4136 50.5289,14.3754 50.5102,14.3369 50.4922,14.298 50.4717,14.2541 50.4521,14.2099 50.4333,14.1653 50.4123,14.1156 50.392,14.0654 50.3728,14.0149 50.3516,13.9594 50.3315,13.9033 50.312,13.8469 50.291,13.7853 50.271,13.7233 50.2523,13.661 50.2319,13.5932 50.2132,13.525 50.1944,13.457 50.1743,13.3834 50.154,13.3098 50.1399,13.2347 50.138,13.225 50.1363,13.2152 50.1354,13.2054 c -8e-4,-0.0094 -8e-4,-0.0189 -2e-4,-0.0283 7e-4,-0.0094 0.0019,-0.0188 0.0038,-0.0281 0.0019,-0.0092 0.0043,-0.0184 0.0076,-0.0273 0.0031,-0.0089 0.0069,-0.0175 0.0113,-0.0259 0.0045,-0.0084 0.0094,-0.0164 0.0149,-0.0241 0.0108,-0.0149 0.0238,-0.0283 0.0379,-0.0401 0.0063,-0.0053 0.0128,-0.0103 0.0192,-0.0154 0.0064,-0.0051 0.0129,-0.0102 0.0194,-0.0154 0.0064,-0.0051 0.0129,-0.0102 0.0192,-0.0153 0.0064,-0.0051 0.0128,-0.0105 0.0193,-0.0155 0.0147,-0.011 0.0305,-0.0207 0.0476,-0.028 0.0086,-0.0036 0.0176,-0.0066 0.0267,-0.009 0.0091,-0.0024 0.0185,-0.0042 0.0278,-0.0053 0.0094,-0.0011 0.0189,-0.0016 0.0284,-0.0014 0.0094,3e-4 0.0188,0.0011 0.0281,0.0026 0.0094,0.0015 0.0186,0.0036 0.0275,0.0065 0.0095,0.0031 0.0186,0.0069 0.0277,0.0108 0.07,0.0306 0.1372,0.0666 0.2045,0.1026 0.0623,0.0335 0.1246,0.0669 0.1861,0.1019 0.0566,0.032 0.1126,0.0653 0.168,0.0998 0.0506,0.0312 0.1007,0.0635 0.1503,0.0965 0.0448,0.03 0.0892,0.0608 0.133,0.0923 0.0393,0.0284 0.0781,0.0573 0.1164,0.0869 0.0338,0.0264 0.0673,0.0532 0.1001,0.0807 0.0287,0.0239 0.0569,0.0482 0.0847,0.073 0.0346,0.0311 0.0683,0.0627 0.1011,0.0955 0.1756,-0.1259 0.3542,-0.2476 0.5355,-0.3651 -0.0184,-0.0425 -0.0357,-0.0855 -0.0519,-0.129 -0.0083,-0.0224 -0.0161,-0.0448 -0.024,-0.0674 l -0.2422,-0.2908 -0.2049,-0.3024 -0.1662,-0.3098 -0.1283,-0.3146 -0.0914,-0.3177 -0.0557,-0.318 -0.0217,-0.3167 0.0111,-0.3124 0.0417,-0.3064 0.0705,-0.2987 0.0975,-0.2895 0.1229,-0.2783 0.146,-0.2658 0.168,-0.2521 0.1235,-0.1557 z m 4.7922,33.2407 c 0.8995,0.1419 1.8211,0.2165 2.7605,0.2165 2.8855,0 5.609,-0.6956 8.0114,-1.9276 L 67.5409,40.3636 67.3038,40.2385 67.0696,40.1122 66.9063,40.0211 66.7495,39.9303 66.5997,39.8401 66.4557,39.7505 66.3176,39.661 66.185,39.5721 66.0573,39.4833 65.934,39.395 65.8151,39.3066 65.6998,39.2187 65.5882,39.1308 65.4791,39.0433 65.3727,38.9556 65.2685,38.8684 65.166,38.781 65.1417,38.7601 65.1252,38.7668 c -0.0076,0.0029 -0.0153,0.0059 -0.023,0.0089 -0.0077,0.0031 -0.0152,0.0062 -0.023,0.009 -0.0173,0.0063 -0.0353,0.011 -0.0535,0.0129 -0.0095,9e-4 -0.019,0.0012 -0.0284,7e-4 -0.0094,-4e-4 -0.0189,-0.0014 -0.0281,-0.0031 -0.0093,-0.0017 -0.0185,-0.004 -0.0275,-0.007 -0.0089,-0.0031 -0.0177,-0.0067 -0.0262,-0.0109 -0.0084,-0.0042 -0.0166,-0.0089 -0.0244,-0.0143 -0.008,-0.0057 -0.0155,-0.012 -0.023,-0.0185 -0.058,-0.0498 -0.1117,-0.104 -0.1653,-0.1583 -0.0497,-0.0503 -0.0994,-0.1007 -0.1477,-0.1521 -0.0448,-0.0475 -0.0884,-0.0958 -0.1312,-0.1449 -0.0391,-0.0449 -0.0776,-0.0904 -0.1152,-0.1365 -0.0341,-0.042 -0.0674,-0.0844 -0.1,-0.1275 -0.0291,-0.0387 -0.0576,-0.0777 -0.0855,-0.1175 L 64.0924,37.8624 64.0167,37.8015 63.8985,37.7082 63.7938,37.628 c -0.0594,0.0195 -0.1191,0.0389 -0.1789,0.0566 l -0.3108,0.0918 c -0.0025,8e-4 0.0089,0.0923 0.0115,0.1387 0.0022,0.0371 0.0036,0.0744 0.0045,0.1117 9e-4,0.0429 0.001,0.0857 5e-4,0.1286 -6e-4,0.0483 -0.0022,0.0968 -0.0046,0.1451 -0.0026,0.054 -0.0062,0.1079 -0.0108,0.1616 -0.0049,0.0594 -0.011,0.1186 -0.0181,0.1778 -0.0077,0.0646 -0.0166,0.1291 -0.0268,0.1935 -0.0111,0.0698 -0.0238,0.1394 -0.0364,0.209 -0.0137,0.0751 -0.0275,0.1501 -0.0473,0.2239 -0.0026,0.0095 -0.0053,0.0191 -0.0087,0.0283 -0.0034,0.0087 -0.0075,0.0173 -0.0121,0.0255 -0.0047,0.0083 -0.0098,0.0162 -0.0156,0.0237 -0.0057,0.0075 -0.0119,0.0147 -0.0186,0.0213 -0.0068,0.0066 -0.0139,0.0128 -0.0216,0.0185 -0.0075,0.0055 -0.0154,0.0107 -0.0237,0.0152 -0.0163,0.0087 -0.0338,0.0151 -0.0517,0.0196 -0.0079,0.0021 -0.0159,0.0038 -0.024,0.0056 -0.008,0.0018 -0.016,0.0037 -0.024,0.0056 -0.008,0.0018 -0.016,0.0035 -0.024,0.0055 -0.0081,0.0018 -0.0161,0.0037 -0.0241,0.0053 -0.018,0.0037 -0.0365,0.0056 -0.0549,0.0047 -0.0095,-4e-4 -0.019,-0.0016 -0.0282,-0.0034 -0.0093,-0.0018 -0.0184,-0.0042 -0.0273,-0.0073 -0.0089,-0.0031 -0.0176,-0.0068 -0.026,-0.0111 -0.0085,-0.0044 -0.0166,-0.0092 -0.0244,-0.0146 -0.0078,-0.0054 -0.0151,-0.0113 -0.022,-0.0178 -0.0071,-0.0068 -0.0137,-0.0142 -0.0201,-0.0217 -0.0498,-0.0579 -0.0947,-0.1195 -0.1398,-0.1811 -0.0416,-0.0573 -0.0832,-0.1144 -0.1235,-0.1726 -0.037,-0.0534 -0.073,-0.1078 -0.108,-0.1628 -0.0321,-0.0501 -0.0633,-0.1009 -0.0935,-0.1522 -0.0274,-0.0465 -0.0541,-0.0935 -0.0799,-0.1408 -0.023,-0.0427 -0.0455,-0.0855 -0.0671,-0.129 -0.0191,-0.0383 -0.0375,-0.077 -0.0553,-0.1159 -0.0154,-0.0341 -0.0303,-0.0681 -0.0444,-0.1027 -0.0089,-0.0214 -0.0174,-0.0429 -0.0258,-0.0645 -0.0083,-0.0218 -0.0164,-0.0435 -0.024,-0.0653 -0.1064,0.0186 -0.2128,0.0373 -0.3198,0.052 l -0.3211,0.0445 c -0.0015,2e-4 -0.0049,0.0926 -0.0092,0.1389 -0.0034,0.037 -0.0075,0.0741 -0.0122,0.1111 -0.0054,0.0425 -0.0117,0.0849 -0.0187,0.1272 -0.0078,0.0477 -0.0166,0.0954 -0.0261,0.1428 -0.0107,0.053 -0.0223,0.1058 -0.0348,0.1582 -0.0137,0.058 -0.0286,0.1157 -0.0445,0.1731 -0.0172,0.0627 -0.0356,0.1253 -0.0552,0.1874 -0.0215,0.0675 -0.0443,0.1343 -0.0673,0.2011 -0.0247,0.0722 -0.0496,0.1444 -0.08,0.2144 -0.004,0.009 -0.0081,0.0181 -0.0128,0.0266 -0.0047,0.0084 -0.01,0.0162 -0.0159,0.0237 -0.0059,0.0074 -0.0121,0.0144 -0.0189,0.021 -0.0068,0.0066 -0.0141,0.0126 -0.0217,0.0182 -0.0075,0.0056 -0.0156,0.0106 -0.0239,0.015 -0.0083,0.0045 -0.017,0.0085 -0.0259,0.0117 -0.0172,0.0062 -0.0355,0.0099 -0.0539,0.0117 -0.0081,8e-4 -0.0164,0.0013 -0.0246,0.0019 -0.0082,6e-4 -0.0164,0.0013 -0.0245,0.0018 -0.0082,7e-4 -0.0165,0.0013 -0.0246,0.0019 -0.0082,6e-4 -0.0164,0.0014 -0.0247,0.0018 -0.0184,9e-4 -0.0369,0 -0.055,-0.0036 -0.0092,-0.0019 -0.0183,-0.0044 -0.0273,-0.0076 -0.0089,-0.0031 -0.0176,-0.0069 -0.0259,-0.0113 -0.0084,-0.0044 -0.0165,-0.0094 -0.0241,-0.0149 -0.0077,-0.0054 -0.0149,-0.0115 -0.0218,-0.0179 -0.007,-0.0065 -0.0134,-0.0135 -0.0192,-0.0209 -0.0061,-0.0079 -0.0114,-0.0162 -0.0167,-0.0245 -0.0405,-0.0647 -0.0759,-0.1324 -0.1111,-0.2 l -0.0645,-0.1256 -0.0573,0.1202 -0.0797,0.1596 -0.0818,0.1551 -0.0868,0.1529 -0.3408,0.5246 -0.3581,0.4512 -0.3714,0.3773 -0.3836,0.3059 -0.3929,0.2359 -0.3993,0.168 -0.4015,0.1015 -0.3988,0.0381 -0.118,-0.0066 z m 14.8304,-4.5828 c 1.6903,-1.5973 3.064,-3.5261 4.0169,-5.6828 l -0.0021,0.0022 -0.103,0.0997 -0.1035,0.0935 -0.1044,0.0877 -0.1058,0.0826 -0.1069,0.0768 -0.1082,0.0715 -0.1091,0.0659 -0.1105,0.0609 -0.1117,0.0554 -0.1125,0.0501 -0.1136,0.045 -0.1147,0.0401 -0.1156,0.0349 -0.1163,0.0302 -0.117,0.0256 -0.1184,0.0211 -0.1185,0.0165 -0.1191,0.0124 -0.1196,0.0084 -0.1208,0.0048 -0.1213,8e-4 L 73.2212,32.8437 73.0988,32.8379 72.9751,32.8292 72.8507,32.8173 72.7255,32.8028 72.5994,32.7855 72.472,32.766 72.3435,32.744 72.2138,32.7199 72.0832,32.6936 71.956,32.6669 71.8932,32.6548 c 0.0284,0.0433 0.056,0.0869 0.0838,0.1304 0.0409,0.0644 0.0818,0.1288 0.1175,0.1964 0.0046,0.0087 0.0092,0.0175 0.0129,0.0267 0.0035,0.0087 0.0063,0.0177 0.0085,0.027 0.0021,0.0092 0.0038,0.0185 0.0046,0.0279 10e-4,0.0094 0.0013,0.0188 9e-4,0.0283 -5e-4,0.0094 -0.0015,0.0187 -0.0033,0.0282 -0.0017,0.0092 -0.004,0.0184 -0.007,0.0273 -0.0059,0.0175 -0.0145,0.034 -0.0244,0.0495 -0.0044,0.007 -0.0092,0.0137 -0.0138,0.0204 -0.0047,0.0068 -0.0093,0.0136 -0.0139,0.0204 -0.0047,0.0068 -0.0094,0.0135 -0.014,0.0203 -0.0046,0.0068 -0.0091,0.0137 -0.0139,0.0204 -0.0108,0.015 -0.023,0.0289 -0.037,0.0408 -0.0073,0.0061 -0.015,0.0116 -0.0231,0.0165 -0.008,0.005 -0.0163,0.0095 -0.025,0.0133 -0.0086,0.0038 -0.0175,0.0072 -0.0265,0.0097 -0.0091,0.0026 -0.0184,0.0045 -0.0278,0.0059 -0.0094,0.0012 -0.0188,0.002 -0.0282,0.0018 -0.0099,0 -0.0198,-10e-4 -0.0296,-0.0022 -0.0759,-0.0085 -0.1507,-0.0232 -0.2257,-0.0378 -0.0694,-0.0135 -0.1388,-0.0272 -0.2078,-0.0424 -0.0636,-0.0141 -0.1269,-0.0294 -0.1899,-0.0458 -0.0577,-0.0151 -0.1151,-0.0309 -0.1721,-0.048 -0.0518,-0.0154 -0.1033,-0.0318 -0.1544,-0.049 -0.0459,-0.0155 -0.0914,-0.0318 -0.1369,-0.0488 -0.04,-0.0151 -0.0799,-0.0309 -0.1194,-0.0475 -0.0344,-0.0144 -0.0685,-0.0293 -0.1024,-0.0449 -0.021,-0.0097 -0.042,-0.0196 -0.0627,-0.0298 -0.0209,-0.0103 -0.0416,-0.0208 -0.0621,-0.0317 -0.0653,0.0861 -0.1307,0.1722 -0.199,0.2559 l -0.2051,0.2509 c 0,0 0.0593,0.0712 0.0877,0.108 0.0227,0.0295 0.0448,0.0595 0.0666,0.0899 0.0248,0.0348 0.0491,0.0701 0.0728,0.1058 0.0268,0.0404 0.0527,0.0812 0.078,0.1226 0.0283,0.046 0.0555,0.0926 0.0822,0.1396 0.0292,0.0518 0.0575,0.1042 0.0851,0.1572 0.03,0.0576 0.059,0.116 0.0869,0.1749 0.0302,0.0639 0.0588,0.1285 0.0876,0.1931 0.0309,0.0697 0.0618,0.1396 0.087,0.2116 0.0033,0.0093 0.0064,0.0188 0.0087,0.0283 0.0022,0.0092 0.0037,0.0186 0.0045,0.0281 7e-4,0.0094 9e-4,0.0188 5e-4,0.0282 -5e-4,0.0095 -0.0017,0.0188 -0.0035,0.0281 -0.0018,0.0093 -0.0043,0.0185 -0.0073,0.0274 -0.0031,0.009 -0.0068,0.0177 -0.0111,0.026 -0.0085,0.0164 -0.0194,0.0314 -0.0316,0.0453 -0.0054,0.0062 -0.0111,0.0122 -0.0167,0.0181 -0.0056,0.0061 -0.0112,0.0121 -0.0167,0.0181 -0.0056,0.006 -0.0112,0.012 -0.0168,0.0181 -0.0056,0.006 -0.011,0.0121 -0.0168,0.0181 -0.013,0.0131 -0.0272,0.0251 -0.0428,0.0348 -0.0081,0.0049 -0.0165,0.0092 -0.0252,0.0129 -0.0087,0.0037 -0.0176,0.0069 -0.0268,0.0094 -0.009,0.0025 -0.0184,0.0043 -0.0277,0.0055 -0.0093,0.0012 -0.0188,0.0017 -0.0282,0.0017 -0.0094,-1e-4 -0.019,-8e-4 -0.0283,-0.0023 C 70.4348,35.0918 70.4253,35.0893 70.4156,35.0868 70.3419,35.067 70.27,35.0414 70.1981,35.0158 70.1315,34.992 70.065,34.9682 69.9989,34.9429 69.9382,34.9195 69.8778,34.895 69.8181,34.8692 c -0.0548,-0.0234 -0.1093,-0.0476 -0.1632,-0.073 -0.0488,-0.0231 -0.0973,-0.0468 -0.1452,-0.0715 -0.0431,-0.0222 -0.0858,-0.045 -0.1281,-0.0687 -0.0374,-0.0208 -0.0745,-0.0425 -0.111,-0.0647 -0.032,-0.0193 -0.0635,-0.0391 -0.0947,-0.0597 -0.0194,-0.0127 -0.0386,-0.0257 -0.0576,-0.0388 -0.019,-0.0133 -0.038,-0.0268 -0.0566,-0.0405 -0.0774,0.0753 -0.1549,0.1508 -0.2349,0.2232 l -0.048,0.0435 0.0797,0.09 0.0938,0.1031 0.1022,0.1117 0.1054,0.1178 0.4268,0.4695 0.4173,0.4347 0.4106,0.403 0.4041,0.3724 0.3984,0.3424 0.3927,0.3137 0.089,0.0656 z"
   id="path3021"
   style="fill:#1f1a17" />
  <path
   d="m 75.8849,42.2801 c -3.109,0.0499 -6.2115,-1.1426 -8.6469,-2.4747 -1.7341,-0.9485 -2.1809,-1.764 -3.8123,-2.8733 -2.291,-1.5579 -2.8427,1.3778 -3.6921,2.8158 -3.4182,5.7865 -8.9361,-2.4525 -3.5512,-4.0145 0.951,-0.276 4.5335,-0.3055 3.3702,-2.0252 -1.1161,-1.6501 -1.852,-3.4272 -2.1631,-4.9992 -0.678,-3.4249 -0.0346,-5.9416 1.113,-9.2413 0.9242,-2.0795 1.0857,-3.1487 -0.8769,-4.3172 -1.7259,-1.0275 -4.0291,-1.1208 -4.8981,-1.9107 -3.0052,-2.731 0.9063,-6.9515 3.7239,-4.6128 0.7187,0.5968 1.0054,1.0298 1.6374,2.9739 0.3427,1.0541 2.729,3.4581 3.5504,1.9982 0.9981,-1.7745 0.8533,-4.1161 1.182,-6.1047 0.8464,-5.1193 4.8006,-9.5692 9.341,-5.4302 1.9232,1.7535 1.5722,5.7961 -1.0032,8.5755 -2.2498,2.4277 -5.9193,3.8257 -4.2741,6.1025 1.0742,1.4867 1.7847,1.5645 2.5036,0.3072 0.3789,-0.6629 -0.1479,-2.2801 0.4264,-3.0923 1.6228,-2.2956 5.5299,-1.3664 5.4198,1.5737 -0.1094,2.9229 -1.897,2.7089 -4.4584,3.1879 -0.4379,0.082 -1.0967,1.5324 -2.108,1.6109 -2.2577,0.1751 -3.7783,-1.6418 -2.475,3.0504 0.509,1.8326 -0.0044,3.8439 0.4249,5.6958 0.9529,4.1098 3.3296,0.4678 4.0663,-1.1545 0.6986,-1.5387 3.8138,-1.892 4.8484,-0.4955 1.0447,1.4099 1.1299,2.9907 -0.0676,4.1897 -1,1.0012 -2.0609,1.0084 -3.4402,0.7083 -1.273,-0.2771 -2.5684,0.5298 -3.5319,1.473 -0.6175,0.6046 -0.1632,0.9352 0.4068,1.5792 4.632,5.2331 8.0602,4.8093 13.0256,3.6275 0.6537,-0.1556 1.2795,-0.3475 1.8883,-0.5598 l 0,1.9395 c -1.746,0.7414 -3.5221,1.3975 -5.4459,1.7156 -0.8013,0.1325 -1.3738,0.1635 -2.4831,0.1813 z m 13.5276,-5.938 c 0.9451,-0.2731 1.9274,-0.4669 2.9862,-0.5166 4.5766,-0.215 9.1391,0.8431 13.6259,1.7877 0.2317,0.077 0.5241,0.2439 0.2024,0.4046 -5.5795,0 -11.0354,-1.3231 -16.5602,-0.0675 -0.085,0.0288 -0.1698,0.0583 -0.2543,0.0879 l 0,-1.6961 z"
   id="path3023"
   style="fill:#da251d" />
  <circle
   cx="66.898903"
   cy="3.40379"
   r="1.13609"
   id="circle3025"
   style="fill:#ffffff" />
  <circle
   cx="71.014801"
   cy="6.0601101"
   r="1.13609"
   id="circle3027"
   style="fill:#ffffff" />
 </g>
</svg>